<?xml version="1.0" encoding="utf-8"?>
<!-- generated at drububu.com  -->
<!DOCTYPE svg PUBLIC "-//W3C//DTD SVG 1.1//EN" "http://www.w3.org/Graphics/SVG/1.1/DTD/svg11.dtd">
<svg version="1.1" preserveAspectRatio="xMinYMin meet" xmlns="http://www.w3.org/2000/svg" xmlns:xlink="http://www.w3.org/1999/xlink" x="0px" y="0px" width="100px" height="100px" viewBox="0 0 100 100">
<path d="M0 0h100v100h-100v-100zM8 21v29h4v-13h14v13h5v-29h-5v12h-14v-12h-4zM37 31v2h-1v1h-1v5h-1v2h1v5h1v1h1v2h2v1h1v1h8v-1h2v-1h2v-2h1v-2h1v-2h-5v2h-1v1
	h-1v1h-5v-1h-1v-1h-1v-2h-1v-2h15v-6h-1v-3h-1v-1h-1v-1h-2v-1h-3v-1h-2v1h-4v1h-1
	v1h-2zM58 21v29h4v-29h-4zM66 21v29h5v-29h-5zM77 30v1h-1v2h-1v2h-1v10h1v2h1v2h2v1h1v1h9v-1h2v-1h1v-1h1v-2h1v-4h1v-6h-1v-3h-1
	v-1h-1v-1h-1v-1h-1v-1h-3v-1h-4v1h-3v1h-2z" fill-rule="nonzero" fill="rgb(255,255,255)"/>
<path d="M8 21h1v1h-1v-1z" fill="rgb(181,181,181)"/>
<path d="M9 21h2v1h-2v-1z" fill="rgb(172,172,172)"/>
<path d="M11 21h1v1h-1v-1z" fill="rgb(174,174,174)"/>
<path d="M26 21h1v1h-1v-1z" fill="rgb(231,231,231)"/>
<path d="M27 21h3v1h-3v-1z" fill="rgb(172,172,172)"/>
<path d="M30 21h1v1h-1v-1z" fill="rgb(207,207,207)"/>
<path d="M58 21h1v1h-1v-1z" fill="rgb(184,184,184)"/>
<path d="M59 21h2v1h-2v-1z" fill="rgb(172,172,172)"/>
<path d="M61 21h1v1h-1v-1z" fill="rgb(204,204,204)"/>
<path d="M66 21h1v1h-1v-1z" fill="rgb(246,246,246)"/>
<path d="M67 21h3v1h-3v-1z" fill="rgb(172,172,172)"/>
<path d="M70 21h1v1h-1v-1z" fill="rgb(225,225,225)"/>
<path d="M8 22h1v28h-1v-28z" fill="rgb(26,26,26)"/>
<path d="M9 22h2v12h16v-12h3v28h-3v-14h-16v14h-2v-28z" fill="rgb(0,0,0)"/>
<path d="M11 22h1v11h-1v-11z" fill="rgb(5,5,5)"/>
<path d="M26 22h1v11h-1v-11z" fill="rgb(182,182,182)"/>
<path d="M30 22h1v28h-1v-28z" fill="rgb(105,105,105)"/>
<path d="M58 22h1v28h-1v-28z" fill="rgb(36,36,36)"/>
<path d="M59 22h2v28h-2v-28z" fill="rgb(0,0,0)"/>
<path d="M61 22h1v28h-1v-28z" fill="rgb(99,99,99)"/>
<path d="M66 22h1v28h-1v-28z" fill="rgb(228,228,228)"/>
<path d="M67 22h3v28h-3v-28z" fill="rgb(0,0,0)"/>
<path d="M70 22h1v28h-1v-28z" fill="rgb(163,163,163)"/>
<path d="M44 28h1v1h-1v-1z" fill="rgb(239,239,239)"/>
<path d="M45 28h1v1h-1v-1z" fill="rgb(250,250,250)"/>
<path d="M82 28h1v1h-1v-1z" fill="rgb(251,251,251)"/>
<path d="M83 28h1v1h-1v-1z" fill="rgb(211,211,211)"/>
<path d="M84 28h1v1h-1v-1z" fill="rgb(221,221,221)"/>
<path d="M85 28h1v1h-1v-1z" fill="rgb(254,254,254)"/>
<path d="M40 29h1v1h-1v-1z" fill="rgb(208,208,208)"/>
<path d="M41 29h1v1h-1v-1z" fill="rgb(129,129,129)"/>
<path d="M42 29h1v1h-1v-1z" fill="rgb(78,78,78)"/>
<path d="M43 29h1v1h-1v-1z" fill="rgb(28,28,28)"/>
<path d="M44 29h1v1h4v1h1v1h1v1h1v2h1v5h-15v4h1v2h1v1h1v1h7v-1h1v-1h1v-2h2v2h-1
	v2h-1v1h-2v1h-7v-1h-2v-1h-1v-1h-1v-2h-1v-4h-1v-1h1v-5h1v-2h1v-1h1v-1h2v-1h3v-1zM44 31v1h-3v1h-1v1h-1v2h-1v3h13v-2h-1v-3h-1v-1h-1v-1h-3v-1h-1z" fill-rule="nonzero" fill="rgb(0,0,0)"/>
<path d="M45 29h1v1h-1v-1z" fill="rgb(2,2,2)"/>
<path d="M46 29h1v1h-1v-1z" fill="rgb(28,28,28)"/>
<path d="M47 29h1v1h-1v-1z" fill="rgb(102,102,102)"/>
<path d="M48 29h1v1h-1v-1z" fill="rgb(196,196,196)"/>
<path d="M79 29h1v1h-1v-1z" fill="rgb(201,201,201)"/>
<path d="M80 29h1v1h-1v-1z" fill="rgb(102,102,102)"/>
<path d="M81 29h1v1h-1v-1z" fill="rgb(53,53,53)"/>
<path d="M82 29h1v1h-1v-1z" fill="rgb(8,8,8)"/>
<path d="M83 29h2v1h3v1h2v1h1v2h1v3h1v5h-1v3h-1v2h-1v1h-1v1h-2v1h-7v-1h-1v-1h-2
	v-2h-1v-1h-1v-10h1v-1h1v-2h1v-1h2v-1h3v-1zM82 31v1h-2v1h-1v1h-1v3h-1v6h1v3h1v1h1v1h7v-1h1v-1h1v-2h1v-9h-1v-2h-1v-1h-3v-1
	h-3z" fill-rule="nonzero" fill="rgb(0,0,0)"/>
<path d="M85 29h1v1h-1v-1z" fill="rgb(12,12,12)"/>
<path d="M86 29h1v1h-1v-1z" fill="rgb(57,57,57)"/>
<path d="M87 29h1v1h-1v-1z" fill="rgb(115,115,115)"/>
<path d="M88 29h1v1h-1v-1z" fill="rgb(238,238,238)"/>
<path d="M39 30h1v1h-1v-1z" fill="rgb(143,143,143)"/>
<path d="M40 30h1v1h-1v-1z" fill="rgb(5,5,5)"/>
<path d="M49 30h1v1h-1v-1z" fill="rgb(77,77,77)"/>
<path d="M50 30h1v1h-1v-1z" fill="rgb(228,228,228)"/>
<path d="M77 30h1v1h-1v-1z" fill="rgb(254,254,254)"/>
<path d="M78 30h1v1h-1v-1z" fill="rgb(140,140,140)"/>
<path d="M79 30h1v1h-1v-1z" fill="rgb(5,5,5)"/>
<path d="M88 30h1v1h-1v-1z" fill="rgb(24,24,24)"/>
<path d="M89 30h1v1h-1v-1z" fill="rgb(174,174,174)"/>
<path d="M37 31h1v1h-1v-1z" fill="rgb(238,238,238)"/>
<path d="M38 31h1v1h-1v-1z" fill="rgb(79,79,79)"/>
<path d="M44 31h1v1h-1v-1z" fill="rgb(9,9,9)"/>
<path d="M50 31h1v1h-1v-1z" fill="rgb(20,20,20)"/>
<path d="M51 31h1v1h-1v-1z" fill="rgb(216,216,216)"/>
<path d="M76 31h1v1h-1v-1z" fill="rgb(240,240,240)"/>
<path d="M77 31h1v1h-1v-1z" fill="rgb(77,77,77)"/>
<path d="M82 31h1v1h-1v-1z" fill="rgb(1,1,1)"/>
<path d="M83 31h1v1h-1v-1z" fill="rgb(38,38,38)"/>
<path d="M84 31h1v1h-1v-1z" fill="rgb(15,15,15)"/>
<path d="M90 31h1v1h-1v-1z" fill="rgb(101,101,101)"/>
<path d="M37 32h1v1h-1v-1z" fill="rgb(76,76,76)"/>
<path d="M41 32h1v1h-1v-1z" fill="rgb(42,42,42)"/>
<path d="M42 32h1v1h-1v-1z" fill="rgb(177,177,177)"/>
<path d="M43 32h1v1h-1v-1z" fill="rgb(231,231,231)"/>
<path d="M44 32h1v1h2v1h1v1h1v2h1v1h-11v-1h1v-2h1v-1h1v-1h2v-1z" fill="rgb(255,255,255)"/>
<path d="M45 32h1v1h-1v-1z" fill="rgb(218,218,218)"/>
<path d="M46 32h1v1h-1v-1z" fill="rgb(162,162,162)"/>
<path d="M47 32h1v1h-1v-1z" fill="rgb(64,64,64)"/>
<path d="M51 32h1v1h-1v-1z" fill="rgb(32,32,32)"/>
<path d="M52 32h1v1h-1v-1z" fill="rgb(242,242,242)"/>
<path d="M76 32h1v1h-1v-1z" fill="rgb(106,106,106)"/>
<path d="M80 32h1v1h-1v-1z" fill="rgb(45,45,45)"/>
<path d="M81 32h1v1h-1v-1z" fill="rgb(183,183,183)"/>
<path d="M82 32h1v1h-1v-1z" fill="rgb(238,238,238)"/>
<path d="M83 32h1v1h3v1h1v1h1v8h-1v2h-1v1h-1v1h-5v-1h-1v-1h-1v-3h-1v-4h1v-3h1
	v-1h1v-1h2v-1z" fill="rgb(255,255,255)"/>
<path d="M84 32h1v1h-1v-1z" fill="rgb(253,253,253)"/>
<path d="M85 32h1v1h-1v-1z" fill="rgb(209,209,209)"/>
<path d="M86 32h1v1h-1v-1z" fill="rgb(147,147,147)"/>
<path d="M87 32h1v1h-1v-1z" fill="rgb(13,13,13)"/>
<path d="M91 32h1v1h-1v-1z" fill="rgb(176,176,176)"/>
<path d="M11 33h1v1h-1v-1z" fill="rgb(1,1,1)"/>
<path d="M12 33h14v1h-14v-1z" fill="rgb(96,96,96)"/>
<path d="M26 33h1v1h-1v-1z" fill="rgb(69,69,69)"/>
<path d="M36 33h1v1h-1v-1z" fill="rgb(187,187,187)"/>
<path d="M40 33h1v1h-1v-1z" fill="rgb(94,94,94)"/>
<path d="M41 33h1v1h-1v-1z" fill="rgb(246,246,246)"/>
<path d="M47 33h1v1h-1v-1z" fill="rgb(248,248,248)"/>
<path d="M48 33h1v1h-1v-1z" fill="rgb(74,74,74)"/>
<path d="M52 33h1v1h-1v-1z" fill="rgb(154,154,154)"/>
<path d="M75 33h1v1h-1v-1z" fill="rgb(217,217,217)"/>
<path d="M76 33h1v1h-1v-1z" fill="rgb(4,4,4)"/>
<path d="M79 33h1v1h-1v-1z" fill="rgb(49,49,49)"/>
<path d="M80 33h1v1h-1v-1z" fill="rgb(236,236,236)"/>
<path d="M87 33h1v1h-1v-1z" fill="rgb(190,190,190)"/>
<path d="M88 33h1v1h-1v-1z" fill="rgb(7,7,7)"/>
<path d="M91 33h1v1h-1v-1z" fill="rgb(28,28,28)"/>
<path d="M92 33h1v1h-1v-1z" fill="rgb(243,243,243)"/>
<path d="M35 34h1v1h-1v-1z" fill="rgb(252,252,252)"/>
<path d="M36 34h1v1h-1v-1z" fill="rgb(45,45,45)"/>
<path d="M39 34h1v1h-1v-1z" fill="rgb(38,38,38)"/>
<path d="M40 34h1v1h-1v-1z" fill="rgb(248,248,248)"/>
<path d="M48 34h1v1h-1v-1z" fill="rgb(249,249,249)"/>
<path d="M49 34h1v1h-1v-1z" fill="rgb(51,51,51)"/>
<path d="M52 34h1v1h-1v-1z" fill="rgb(56,56,56)"/>
<path d="M75 34h1v1h-1v-1z" fill="rgb(81,81,81)"/>
<path d="M78 34h1v1h-1v-1z" fill="rgb(9,9,9)"/>
<path d="M79 34h1v1h-1v-1z" fill="rgb(235,235,235)"/>
<path d="M88 34h1v1h-1v-1z" fill="rgb(170,170,170)"/>
<path d="M92 34h1v1h-1v-1z" fill="rgb(116,116,116)"/>
<path d="M35 35h1v1h-1v-1z" fill="rgb(163,163,163)"/>
<path d="M39 35h1v1h-1v-1z" fill="rgb(184,184,184)"/>
<path d="M49 35h1v1h-1v-1z" fill="rgb(160,160,160)"/>
<path d="M53 35h1v1h-1v-1z" fill="rgb(215,215,215)"/>
<path d="M74 35h1v1h-1v-1z" fill="rgb(212,212,212)"/>
<path d="M78 35h1v1h-1v-1z" fill="rgb(95,95,95)"/>
<path d="M89 35h1v1h-1v-1z" fill="rgb(31,31,31)"/>
<path d="M92 35h1v1h-1v-1z" fill="rgb(47,47,47)"/>
<path d="M11 36h1v1h-1v-1z" fill="rgb(1,1,1)"/>
<path d="M12 36h14v1h-14v-1z" fill="rgb(63,63,63)"/>
<path d="M26 36h1v1h-1v-1z" fill="rgb(45,45,45)"/>
<path d="M35 36h1v1h-1v-1z" fill="rgb(108,108,108)"/>
<path d="M38 36h1v1h-1v-1z" fill="rgb(5,5,5)"/>
<path d="M39 36h1v1h-1v-1z" fill="rgb(248,248,248)"/>
<path d="M49 36h1v1h-1v-1z" fill="rgb(234,234,234)"/>
<path d="M53 36h1v1h-1v-1z" fill="rgb(137,137,137)"/>
<path d="M74 36h1v1h-1v-1z" fill="rgb(166,166,166)"/>
<path d="M78 36h1v1h-1v-1z" fill="rgb(198,198,198)"/>
<path d="M89 36h1v1h-1v-1z" fill="rgb(113,113,113)"/>
<path d="M92 36h1v1h-1v-1z" fill="rgb(10,10,10)"/>
<path d="M93 36h1v1h-1v-1z" fill="rgb(254,254,254)"/>
<path d="M11 37h1v13h-1v-13z" fill="rgb(5,5,5)"/>
<path d="M26 37h1v13h-1v-13z" fill="rgb(182,182,182)"/>
<path d="M35 37h1v1h-1v-1z" fill="rgb(69,69,69)"/>
<path d="M38 37h1v1h-1v-1z" fill="rgb(48,48,48)"/>
<path d="M50 37h1v1h-1v-1z" fill="rgb(22,22,22)"/>
<path d="M53 37h1v1h-1v-1z" fill="rgb(103,103,103)"/>
<path d="M74 37h1v1h-1v-1z" fill="rgb(130,130,130)"/>
<path d="M77 37h1v1h-1v-1z" fill="rgb(4,4,4)"/>
<path d="M78 37h1v1h-1v-1z" fill="rgb(252,252,252)"/>
<path d="M89 37h1v1h-1v-1z" fill="rgb(152,152,152)"/>
<path d="M93 37h1v1h-1v-1z" fill="rgb(226,226,226)"/>
<path d="M35 38h1v1h-1v-1z" fill="rgb(31,31,31)"/>
<path d="M38 38h1v1h-1v-1z" fill="rgb(1,1,1)"/>
<path d="M39 38h11v1h-11v-1z" fill="rgb(6,6,6)"/>
<path d="M50 38h1v1h-1v-1z" fill="rgb(1,1,1)"/>
<path d="M53 38h1v1h-1v-1z" fill="rgb(81,81,81)"/>
<path d="M74 38h1v1h-1v-1z" fill="rgb(94,94,94)"/>
<path d="M77 38h1v1h-1v-1z" fill="rgb(29,29,29)"/>
<path d="M89 38h1v1h-1v-1z" fill="rgb(174,174,174)"/>
<path d="M93 38h1v1h-1v-1z" fill="rgb(187,187,187)"/>
<path d="M34 39h1v1h-1v-1z" fill="rgb(247,247,247)"/>
<path d="M35 39h1v1h-1v-1z" fill="rgb(1,1,1)"/>
<path d="M53 39h1v1h-1v-1z" fill="rgb(74,74,74)"/>
<path d="M74 39h1v1h-1v-1z" fill="rgb(57,57,57)"/>
<path d="M77 39h1v1h-1v-1z" fill="rgb(58,58,58)"/>
<path d="M89 39h1v1h-1v-1z" fill="rgb(186,186,186)"/>
<path d="M93 39h1v1h-1v-1z" fill="rgb(169,169,169)"/>
<path d="M34 40h1v1h-1v-1z" fill="rgb(243,243,243)"/>
<path d="M38 40h1v1h-1v-1z" fill="rgb(20,20,20)"/>
<path d="M39 40h14v1h-14v-1z" fill="rgb(55,55,55)"/>
<path d="M53 40h1v1h-1v-1z" fill="rgb(108,108,108)"/>
<path d="M74 40h1v1h-1v-1z" fill="rgb(49,49,49)"/>
<path d="M77 40h1v1h-1v-1z" fill="rgb(62,62,62)"/>
<path d="M89 40h1v1h-1v-1z" fill="rgb(162,162,162)"/>
<path d="M93 40h1v1h-1v-1z" fill="rgb(201,201,201)"/>
<path d="M35 41h1v1h-1v-1z" fill="rgb(26,26,26)"/>
<path d="M38 41h1v1h-1v-1z" fill="rgb(72,72,72)"/>
<path d="M74 41h1v1h-1v-1z" fill="rgb(85,85,85)"/>
<path d="M77 41h1v1h-1v-1z" fill="rgb(31,31,31)"/>
<path d="M89 41h1v1h-1v-1z" fill="rgb(135,135,135)"/>
<path d="M93 41h1v1h-1v-1z" fill="rgb(235,235,235)"/>
<path d="M35 42h1v1h-1v-1z" fill="rgb(64,64,64)"/>
<path d="M38 42h1v1h-1v-1z" fill="rgb(34,34,34)"/>
<path d="M74 42h1v1h-1v-1z" fill="rgb(122,122,122)"/>
<path d="M77 42h1v1h-1v-1z" fill="rgb(4,4,4)"/>
<path d="M78 42h1v1h-1v-1z" fill="rgb(252,252,252)"/>
<path d="M89 42h1v1h-1v-1z" fill="rgb(97,97,97)"/>
<path d="M92 42h1v1h-1v-1z" fill="rgb(13,13,13)"/>
<path d="M35 43h1v1h-1v-1z" fill="rgb(102,102,102)"/>
<path d="M38 43h1v1h-1v-1z" fill="rgb(3,3,3)"/>
<path d="M39 43h1v1h-1v-1z" fill="rgb(243,243,243)"/>
<path d="M49 43h1v1h-1v-1z" fill="rgb(244,244,244)"/>
<path d="M50 43h3v1h-3v-1z" fill="rgb(133,133,133)"/>
<path d="M53 43h1v1h-1v-1z" fill="rgb(210,210,210)"/>
<path d="M74 43h1v1h-1v-1z" fill="rgb(159,159,159)"/>
<path d="M78 43h1v1h-1v-1z" fill="rgb(192,192,192)"/>
<path d="M88 43h1v1h-1v-1z" fill="rgb(250,250,250)"/>
<path d="M89 43h1v1h-1v-1z" fill="rgb(18,18,18)"/>
<path d="M92 43h1v1h-1v-1z" fill="rgb(49,49,49)"/>
<path d="M35 44h1v1h-1v-1z" fill="rgb(151,151,151)"/>
<path d="M39 44h1v1h-1v-1z" fill="rgb(139,139,139)"/>
<path d="M49 44h1v1h-1v-1z" fill="rgb(130,130,130)"/>
<path d="M52 44h1v1h-1v-1z" fill="rgb(1,1,1)"/>
<path d="M53 44h1v1h-1v-1z" fill="rgb(225,225,225)"/>
<path d="M74 44h1v1h-1v-1z" fill="rgb(209,209,209)"/>
<path d="M78 44h1v1h-1v-1z" fill="rgb(80,80,80)"/>
<path d="M88 44h1v1h-1v-1z" fill="rgb(179,179,179)"/>
<path d="M92 44h1v1h-1v-1z" fill="rgb(146,146,146)"/>
<path d="M35 45h1v1h-1v-1z" fill="rgb(249,249,249)"/>
<path d="M36 45h1v1h-1v-1z" fill="rgb(37,37,37)"/>
<path d="M39 45h1v1h-1v-1z" fill="rgb(24,24,24)"/>
<path d="M40 45h1v1h-1v-1z" fill="rgb(244,244,244)"/>
<path d="M48 45h1v1h-1v-1z" fill="rgb(233,233,233)"/>
<path d="M49 45h1v1h-1v-1z" fill="rgb(13,13,13)"/>
<path d="M52 45h1v1h-1v-1z" fill="rgb(62,62,62)"/>
<path d="M75 45h1v1h-1v-1z" fill="rgb(83,83,83)"/>
<path d="M78 45h1v1h-1v-1z" fill="rgb(2,2,2)"/>
<path d="M79 45h1v1h-1v-1z" fill="rgb(205,205,205)"/>
<path d="M87 45h1v1h-1v-1z" fill="rgb(242,242,242)"/>
<path d="M88 45h1v1h-1v-1z" fill="rgb(50,50,50)"/>
<path d="M91 45h1v1h-1v-1z" fill="rgb(25,25,25)"/>
<path d="M92 45h1v1h-1v-1z" fill="rgb(247,247,247)"/>
<path d="M36 46h1v1h-1v-1z" fill="rgb(183,183,183)"/>
<path d="M40 46h1v1h-1v-1z" fill="rgb(48,48,48)"/>
<path d="M41 46h1v1h-1v-1z" fill="rgb(224,224,224)"/>
<path d="M47 46h1v1h-1v-1z" fill="rgb(201,201,201)"/>
<path d="M48 46h1v1h-1v-1z" fill="rgb(36,36,36)"/>
<path d="M51 46h1v1h-1v-1z" fill="rgb(3,3,3)"/>
<path d="M52 46h1v1h-1v-1z" fill="rgb(193,193,193)"/>
<path d="M75 46h1v1h-1v-1z" fill="rgb(219,219,219)"/>
<path d="M76 46h1v1h-1v-1z" fill="rgb(5,5,5)"/>
<path d="M79 46h1v1h-1v-1z" fill="rgb(14,14,14)"/>
<path d="M80 46h1v1h-1v-1z" fill="rgb(187,187,187)"/>
<path d="M86 46h1v1h-1v-1z" fill="rgb(247,247,247)"/>
<path d="M87 46h1v1h-1v-1z" fill="rgb(64,64,64)"/>
<path d="M91 46h1v1h-1v-1z" fill="rgb(142,142,142)"/>
<path d="M37 47h1v1h-1v-1z" fill="rgb(80,80,80)"/>
<path d="M41 47h1v1h-1v-1z" fill="rgb(19,19,19)"/>
<path d="M42 47h1v1h-1v-1z" fill="rgb(94,94,94)"/>
<path d="M43 47h1v1h-1v-1z" fill="rgb(142,142,142)"/>
<path d="M44 47h1v1h-1v-1z" fill="rgb(173,173,173)"/>
<path d="M45 47h1v1h-1v-1z" fill="rgb(133,133,133)"/>
<path d="M46 47h1v1h-1v-1z" fill="rgb(84,84,84)"/>
<path d="M47 47h1v1h-1v-1z" fill="rgb(4,4,4)"/>
<path d="M51 47h1v1h-1v-1z" fill="rgb(132,132,132)"/>
<path d="M76 47h1v1h-1v-1z" fill="rgb(114,114,114)"/>
<path d="M80 47h1v1h-1v-1z" fill="rgb(5,5,5)"/>
<path d="M81 47h1v1h-1v-1z" fill="rgb(79,79,79)"/>
<path d="M82 47h1v1h-1v-1z" fill="rgb(131,131,131)"/>
<path d="M83 47h1v1h-1v-1z" fill="rgb(179,179,179)"/>
<path d="M84 47h1v1h-1v-1z" fill="rgb(151,151,151)"/>
<path d="M85 47h1v1h-1v-1z" fill="rgb(94,94,94)"/>
<path d="M86 47h1v1h-1v-1z" fill="rgb(32,32,32)"/>
<path d="M90 47h1v1h-1v-1z" fill="rgb(38,38,38)"/>
<path d="M91 47h1v1h-1v-1z" fill="rgb(246,246,246)"/>
<path d="M37 48h1v1h-1v-1z" fill="rgb(246,246,246)"/>
<path d="M38 48h1v1h-1v-1z" fill="rgb(106,106,106)"/>
<path d="M50 48h1v1h-1v-1z" fill="rgb(103,103,103)"/>
<path d="M51 48h1v1h-1v-1z" fill="rgb(253,253,253)"/>
<path d="M76 48h1v1h-1v-1z" fill="rgb(253,253,253)"/>
<path d="M77 48h1v1h-1v-1z" fill="rgb(128,128,128)"/>
<path d="M78 48h1v1h-1v-1z" fill="rgb(3,3,3)"/>
<path d="M89 48h1v1h-1v-1z" fill="rgb(34,34,34)"/>
<path d="M90 48h1v1h-1v-1z" fill="rgb(227,227,227)"/>
<path d="M39 49h1v1h-1v-1z" fill="rgb(180,180,180)"/>
<path d="M40 49h1v1h-1v-1z" fill="rgb(22,22,22)"/>
<path d="M48 49h1v1h-1v-1z" fill="rgb(39,39,39)"/>
<path d="M49 49h1v1h-1v-1z" fill="rgb(171,171,171)"/>
<path d="M78 49h1v1h-1v-1z" fill="rgb(193,193,193)"/>
<path d="M79 49h1v1h-1v-1z" fill="rgb(28,28,28)"/>
<path d="M87 49h1v1h-1v-1z" fill="rgb(5,5,5)"/>
<path d="M88 49h1v1h-1v-1z" fill="rgb(114,114,114)"/>
<path d="M89 49h1v1h-1v-1z" fill="rgb(241,241,241)"/>
<path d="M40 50h1v1h-1v-1z" fill="rgb(246,246,246)"/>
<path d="M41 50h1v1h-1v-1z" fill="rgb(199,199,199)"/>
<path d="M42 50h1v1h-1v-1z" fill="rgb(149,149,149)"/>
<path d="M43 50h1v1h-1v-1z" fill="rgb(99,99,99)"/>
<path d="M44 50h1v1h-1v-1z" fill="rgb(80,80,80)"/>
<path d="M45 50h1v1h-1v-1z" fill="rgb(107,107,107)"/>
<path d="M46 50h1v1h-1v-1z" fill="rgb(135,135,135)"/>
<path d="M47 50h1v1h-1v-1z" fill="rgb(200,200,200)"/>
<path d="M79 50h1v1h-1v-1z" fill="rgb(248,248,248)"/>
<path d="M80 50h1v1h-1v-1z" fill="rgb(204,204,204)"/>
<path d="M81 50h1v1h-1v-1z" fill="rgb(155,155,155)"/>
<path d="M82 50h1v1h-1v-1z" fill="rgb(107,107,107)"/>
<path d="M83 50h1v1h-1v-1z" fill="rgb(71,71,71)"/>
<path d="M84 50h1v1h-1v-1z" fill="rgb(87,87,87)"/>
<path d="M85 50h1v1h-1v-1z" fill="rgb(110,110,110)"/>
<path d="M86 50h1v1h-1v-1z" fill="rgb(169,169,169)"/>
<path d="M87 50h1v1h-1v-1z" fill="rgb(240,240,240)"/>
</svg>