<?xml version="1.0" encoding="utf-8"?>
<!-- generated at drububu.com  -->
<!DOCTYPE svg PUBLIC "-//W3C//DTD SVG 1.1//EN" "http://www.w3.org/Graphics/SVG/1.1/DTD/svg11.dtd">
<svg version="1.1" preserveAspectRatio="xMinYMin meet" xmlns="http://www.w3.org/2000/svg" xmlns:xlink="http://www.w3.org/1999/xlink" x="0px" y="0px" width="100px" height="100px" viewBox="0 0 100 100">
<path d="M0 0h100v100h-100v-100zM8 21v29h4v-13h14v13h5v-29h-5v12h-14v-12h-4zM37 31v2h-1v1h-1v5h-1v2h1v5h1v1h1v2h2v1h1v1h8v-1h2v-1h2v-2h1v-2h1v-2h-5v2h-1v1
	h-1v1h-5v-1h-1v-1h-1v-2h-1v-2h15v-6h-1v-3h-1v-1h-1v-1h-2v-1h-3v-1h-2v1h-4v1h-1
	v1h-2zM58 21v29h4v-29h-4zM66 21v29h5v-29h-5zM77 30v1h-1v2h-1v2h-1v10h1v2h1v2h2v1h1v1h9v-1h2v-1h1v-1h1v-2h1v-4h1v-6h-1v-3h-1
	v-1h-1v-1h-1v-1h-1v-1h-3v-1h-4v1h-3v1h-2z" fill-rule="nonzero" fill="rgb(255,255,255)"/>
<path d="M8 21h4v12h14v-12h5v29h-5v-13h-14v13h-4v-29z" fill="rgb(0,0,0)"/>
<path d="M58 21h4v29h-4v-29z" fill="rgb(0,0,0)"/>
<path d="M66 21h5v29h-5v-29z" fill="rgb(0,0,0)"/>
<path d="M44 28h2v1h3v1h2v1h1v1h1v3h1v6h-15v2h1v2h1v1h1v1h5v-1h1v-1h1v-2h5v2h-1
	v2h-1v2h-2v1h-2v1h-8v-1h-1v-1h-2v-2h-1v-1h-1v-5h-1v-2h1v-5h1v-1h1v-2h2v-1h1v-1
	h4v-1zM44 32v1h-2v1h-1v1h-1v2h-1v1h11v-1h-1v-2h-1v-1h-1v-1h-2v-1h-1z" fill-rule="nonzero" fill="rgb(0,0,0)"/>
<path d="M82 28h4v1h3v1h1v1h1v1h1v1h1v3h1v6h-1v4h-1v2h-1v1h-1v1h-2v1h-9v-1h-1
	v-1h-2v-2h-1v-2h-1v-10h1v-2h1v-2h1v-1h2v-1h3v-1zM83 32v1h-2v1h-1v1h-1v3h-1v4h1v3h1v1h1v1h5v-1h1v-1h1v-2h1v-8h-1v-1h-1v-1h-3v-1
	h-1z" fill-rule="nonzero" fill="rgb(0,0,0)"/>
<path d="M44 32h1v1h2v1h1v1h1v2h1v1h-11v-1h1v-2h1v-1h1v-1h2v-1z" fill="rgb(255,255,255)"/>
<path d="M83 32h1v1h3v1h1v1h1v8h-1v2h-1v1h-1v1h-5v-1h-1v-1h-1v-3h-1v-4h1v-3h1
	v-1h1v-1h2v-1z" fill="rgb(255,255,255)"/>
</svg>