<svg id="Layer_1" data-name="Layer 1" xmlns="http://www.w3.org/2000/svg" viewBox="0 0 100 100"><defs><style>.cls-1{fill:#fff;}</style></defs><path class="cls-1" d="M0,0H100V100H0ZM8,21V50h4V37H26V50h5V21H26V33H12V21ZM37,31v2H36v1H35v5H34v2h1v5h1v1h1v2h2v1h1v1h8V50h2V49h2V47h1V45h1V43H49v2H48v1H47v1H42V46H41V45H40V43H39V41H54V35H53V32H52V31H51V30H49V29H46V28H44v1H40v1H39v1ZM58,21V50h4V21Zm8,0V50h5V21Zm11,9v1H76v2H75v2H74V45h1v2h1v2h2v1h1v1h9V50h2V49h1V48h1V46h1V42h1V36H93V33H92V32H91V31H90V30H89V29H86V28H82v1H79v1Z"/><path d="M8,21h4V33H26V21h5V50H26V37H12V50H8Z"/><path d="M58,21h4V50H58Z"/><path d="M66,21h5V50H66Z"/><path d="M44,28h2v1h3v1h2v1h1v1h1v3h1v6H39v2h1v2h1v1h1v1h5V46h1V45h1V43h5v2H53v2H52v2H50v1H48v1H40V50H39V49H37V47H36V46H35V41H34V39h1V34h1V33h1V31h2V30h1V29h4Zm0,4v1H42v1H41v1H40v2H39v1H50V37H49V35H48V34H47V33H45V32Z"/><path d="M82,28h4v1h3v1h1v1h1v1h1v1h1v3h1v6H93v4H92v2H91v1H90v1H88v1H79V50H78V49H76V47H75V45H74V35h1V33h1V31h1V30h2V29h3Zm1,4v1H81v1H80v1H79v3H78v4h1v3h1v1h1v1h5V46h1V45h1V43h1V35H88V34H87V33H84V32Z"/><path class="cls-1" d="M44,32h1v1h2v1h1v1h1v2h1v1H39V37h1V35h1V34h1V33h2Z"/><path class="cls-1" d="M83,32h1v1h3v1h1v1h1v8H88v2H87v1H86v1H81V46H80V45H79V42H78V38h1V35h1V34h1V33h2Z"/><path d="M98,2V98H2V2H98m2-2H0V100H100V0Z"/></svg>