<svg id="Layer_1" data-name="Layer 1" xmlns="http://www.w3.org/2000/svg" viewBox="0 0 100 100"><defs><style>.cls-1{fill:#fff;}.cls-2{fill:#b5b5b5;}.cls-3{fill:#acacac;}.cls-4{fill:#aeaeae;}.cls-5{fill:#e7e7e7;}.cls-6{fill:#cfcfcf;}.cls-7{fill:#b8b8b8;}.cls-8{fill:#ccc;}.cls-9{fill:#f6f6f6;}.cls-10{fill:#e1e1e1;}.cls-11{fill:#1a1a1a;}.cls-12{fill:#050505;}.cls-13{fill:#b6b6b6;}.cls-14{fill:#696969;}.cls-15{fill:#242424;}.cls-16{fill:#636363;}.cls-17{fill:#e4e4e4;}.cls-18{fill:#a3a3a3;}.cls-19{fill:#efefef;}.cls-20{fill:#fafafa;}.cls-21{fill:#fbfbfb;}.cls-22{fill:#d3d3d3;}.cls-23{fill:#ddd;}.cls-24{fill:#fefefe;}.cls-25{fill:#d0d0d0;}.cls-26{fill:#818181;}.cls-27{fill:#4e4e4e;}.cls-28{fill:#1c1c1c;}.cls-29{fill:#020202;}.cls-30{fill:#666;}.cls-31{fill:#c4c4c4;}.cls-32{fill:#c9c9c9;}.cls-33{fill:#353535;}.cls-34{fill:#080808;}.cls-35{fill:#0c0c0c;}.cls-36{fill:#393939;}.cls-37{fill:#737373;}.cls-38{fill:#eee;}.cls-39{fill:#8f8f8f;}.cls-40{fill:#4d4d4d;}.cls-41{fill:#8c8c8c;}.cls-42{fill:#181818;}.cls-43{fill:#4f4f4f;}.cls-44{fill:#090909;}.cls-45{fill:#141414;}.cls-46{fill:#d8d8d8;}.cls-47{fill:#f0f0f0;}.cls-48{fill:#010101;}.cls-49{fill:#262626;}.cls-50{fill:#0f0f0f;}.cls-51{fill:#656565;}.cls-52{fill:#4c4c4c;}.cls-53{fill:#2a2a2a;}.cls-54{fill:#b1b1b1;}.cls-55{fill:#dadada;}.cls-56{fill:#a2a2a2;}.cls-57{fill:#404040;}.cls-58{fill:#202020;}.cls-59{fill:#f2f2f2;}.cls-60{fill:#6a6a6a;}.cls-61{fill:#2d2d2d;}.cls-62{fill:#b7b7b7;}.cls-63{fill:#fdfdfd;}.cls-64{fill:#d1d1d1;}.cls-65{fill:#939393;}.cls-66{fill:#0d0d0d;}.cls-67{fill:#b0b0b0;}.cls-68{fill:#606060;}.cls-69{fill:#454545;}.cls-70{fill:#bbb;}.cls-71{fill:#5e5e5e;}.cls-72{fill:#f8f8f8;}.cls-73{fill:#4a4a4a;}.cls-74{fill:#9a9a9a;}.cls-75{fill:#d9d9d9;}.cls-76{fill:#040404;}.cls-77{fill:#313131;}.cls-78{fill:#ececec;}.cls-79{fill:#bebebe;}.cls-80{fill:#070707;}.cls-81{fill:#f3f3f3;}.cls-82{fill:#fcfcfc;}.cls-83{fill:#f9f9f9;}.cls-84{fill:#333;}.cls-85{fill:#383838;}.cls-86{fill:#515151;}.cls-87{fill:#ebebeb;}.cls-88{fill:#aaa;}.cls-89{fill:#747474;}.cls-90{fill:#a0a0a0;}.cls-91{fill:#d7d7d7;}.cls-92{fill:#d4d4d4;}.cls-93{fill:#5f5f5f;}.cls-94{fill:#1f1f1f;}.cls-95{fill:#2f2f2f;}.cls-96{fill:#3f3f3f;}.cls-97{fill:#6c6c6c;}.cls-98{fill:#eaeaea;}.cls-99{fill:#898989;}.cls-100{fill:#a6a6a6;}.cls-101{fill:#c6c6c6;}.cls-102{fill:#717171;}.cls-103{fill:#0a0a0a;}.cls-104{fill:#303030;}.cls-105{fill:#161616;}.cls-106{fill:#676767;}.cls-107{fill:#828282;}.cls-108{fill:#989898;}.cls-109{fill:#e2e2e2;}.cls-110{fill:#060606;}.cls-111{fill:#1d1d1d;}.cls-112{fill:#f7f7f7;}.cls-113{fill:#3a3a3a;}.cls-114{fill:#bababa;}.cls-115{fill:#a9a9a9;}.cls-116{fill:#373737;}.cls-117{fill:#3e3e3e;}.cls-118{fill:#484848;}.cls-119{fill:#555;}.cls-120{fill:#878787;}.cls-121{fill:#222;}.cls-122{fill:#7a7a7a;}.cls-123{fill:#616161;}.cls-124{fill:#030303;}.cls-125{fill:#f4f4f4;}.cls-126{fill:#858585;}.cls-127{fill:#d2d2d2;}.cls-128{fill:#9f9f9f;}.cls-129{fill:silver;}.cls-130{fill:#121212;}.cls-131{fill:#979797;}.cls-132{fill:#8b8b8b;}.cls-133{fill:#505050;}.cls-134{fill:#b3b3b3;}.cls-135{fill:#929292;}.cls-136{fill:#252525;}.cls-137{fill:#e9e9e9;}.cls-138{fill:#535353;}.cls-139{fill:#cdcdcd;}.cls-140{fill:#323232;}.cls-141{fill:#191919;}.cls-142{fill:#e0e0e0;}.cls-143{fill:#c1c1c1;}.cls-144{fill:#dbdbdb;}.cls-145{fill:#0e0e0e;}.cls-146{fill:#8e8e8e;}.cls-147{fill:#131313;}.cls-148{fill:#adadad;}.cls-149{fill:#545454;}.cls-150{fill:#848484;}.cls-151{fill:#727272;}.cls-152{fill:#838383;}.cls-153{fill:gray;}.cls-154{fill:#e3e3e3;}.cls-155{fill:#b4b4b4;}.cls-156{fill:#272727;}.cls-157{fill:#ababab;}.cls-158{fill:#f1f1f1;}.cls-159{fill:#c7c7c7;}.cls-160{fill:#959595;}.cls-161{fill:#6b6b6b;}.cls-162{fill:#c8c8c8;}.cls-163{fill:#9b9b9b;}.cls-164{fill:#474747;}.cls-165{fill:#575757;}.cls-166{fill:#6e6e6e;}</style></defs><path class="cls-1" d="M0,0H100V100H0ZM8,21V50h4V37H26V50h5V21H26V33H12V21ZM37,31v2H36v1H35v5H34v2h1v5h1v1h1v2h2v1h1v1h8V50h2V49h2V47h1V45h1V43H49v2H48v1H47v1H42V46H41V45H40V43H39V41H54V35H53V32H52V31H51V30H49V29H46V28H44v1H40v1H39v1ZM58,21V50h4V21Zm8,0V50h5V21Zm11,9v1H76v2H75v2H74V45h1v2h1v2h2v1h1v1h9V50h2V49h1V48h1V46h1V42h1V36H93V33H92V32H91V31H90V30H89V29H86V28H82v1H79v1Z"/><path class="cls-2" d="M8,21H9v1H8Z"/><path class="cls-3" d="M9,21h2v1H9Z"/><path class="cls-4" d="M11,21h1v1H11Z"/><path class="cls-5" d="M26,21h1v1H26Z"/><path class="cls-3" d="M27,21h3v1H27Z"/><path class="cls-6" d="M30,21h1v1H30Z"/><path class="cls-7" d="M58,21h1v1H58Z"/><path class="cls-3" d="M59,21h2v1H59Z"/><path class="cls-8" d="M61,21h1v1H61Z"/><path class="cls-9" d="M66,21h1v1H66Z"/><path class="cls-3" d="M67,21h3v1H67Z"/><path class="cls-10" d="M70,21h1v1H70Z"/><path class="cls-11" d="M8,22H9V50H8Z"/><path d="M9,22h2V34H27V22h3V50H27V36H11V50H9Z"/><path class="cls-12" d="M11,22h1V33H11Z"/><path class="cls-13" d="M26,22h1V33H26Z"/><path class="cls-14" d="M30,22h1V50H30Z"/><path class="cls-15" d="M58,22h1V50H58Z"/><path d="M59,22h2V50H59Z"/><path class="cls-16" d="M61,22h1V50H61Z"/><path class="cls-17" d="M66,22h1V50H66Z"/><path d="M67,22h3V50H67Z"/><path class="cls-18" d="M70,22h1V50H70Z"/><path class="cls-19" d="M44,28h1v1H44Z"/><path class="cls-20" d="M45,28h1v1H45Z"/><path class="cls-21" d="M82,28h1v1H82Z"/><path class="cls-22" d="M83,28h1v1H83Z"/><path class="cls-23" d="M84,28h1v1H84Z"/><path class="cls-24" d="M85,28h1v1H85Z"/><path class="cls-25" d="M40,29h1v1H40Z"/><path class="cls-26" d="M41,29h1v1H41Z"/><path class="cls-27" d="M42,29h1v1H42Z"/><path class="cls-28" d="M43,29h1v1H43Z"/><path d="M44,29h1v1h4v1h1v1h1v1h1v2h1v5H38v4h1v2h1v1h1v1h7V47h1V46h1V44h2v2H51v2H50v1H48v1H41V49H39V48H38V47H37V45H36V41H35V40h1V35h1V33h1V32h1V31h2V30h3Zm0,2v1H41v1H40v1H39v2H38v3H51V37H50V34H49V33H48V32H45V31Z"/><path class="cls-29" d="M45,29h1v1H45Z"/><path class="cls-28" d="M46,29h1v1H46Z"/><path class="cls-30" d="M47,29h1v1H47Z"/><path class="cls-31" d="M48,29h1v1H48Z"/><path class="cls-32" d="M79,29h1v1H79Z"/><path class="cls-30" d="M80,29h1v1H80Z"/><path class="cls-33" d="M81,29h1v1H81Z"/><path class="cls-34" d="M82,29h1v1H82Z"/><path d="M83,29h2v1h3v1h2v1h1v2h1v3h1v5H92v3H91v2H90v1H89v1H87v1H80V49H79V48H77V46H76V45H75V35h1V34h1V32h1V31h2V30h3Zm-1,2v1H80v1H79v1H78v3H77v6h1v3h1v1h1v1h7V47h1V46h1V44h1V35H89V33H88V32H85V31Z"/><path class="cls-35" d="M85,29h1v1H85Z"/><path class="cls-36" d="M86,29h1v1H86Z"/><path class="cls-37" d="M87,29h1v1H87Z"/><path class="cls-38" d="M88,29h1v1H88Z"/><path class="cls-39" d="M39,30h1v1H39Z"/><path class="cls-12" d="M40,30h1v1H40Z"/><path class="cls-40" d="M49,30h1v1H49Z"/><path class="cls-17" d="M50,30h1v1H50Z"/><path class="cls-24" d="M77,30h1v1H77Z"/><path class="cls-41" d="M78,30h1v1H78Z"/><path class="cls-12" d="M79,30h1v1H79Z"/><path class="cls-42" d="M88,30h1v1H88Z"/><path class="cls-4" d="M89,30h1v1H89Z"/><path class="cls-38" d="M37,31h1v1H37Z"/><path class="cls-43" d="M38,31h1v1H38Z"/><path class="cls-44" d="M44,31h1v1H44Z"/><path class="cls-45" d="M50,31h1v1H50Z"/><path class="cls-46" d="M51,31h1v1H51Z"/><path class="cls-47" d="M76,31h1v1H76Z"/><path class="cls-40" d="M77,31h1v1H77Z"/><path class="cls-48" d="M82,31h1v1H82Z"/><path class="cls-49" d="M83,31h1v1H83Z"/><path class="cls-50" d="M84,31h1v1H84Z"/><path class="cls-51" d="M90,31h1v1H90Z"/><path class="cls-52" d="M37,32h1v1H37Z"/><path class="cls-53" d="M41,32h1v1H41Z"/><path class="cls-54" d="M42,32h1v1H42Z"/><path class="cls-5" d="M43,32h1v1H43Z"/><path class="cls-1" d="M44,32h1v1h2v1h1v1h1v2h1v1H39V37h1V35h1V34h1V33h2Z"/><path class="cls-55" d="M45,32h1v1H45Z"/><path class="cls-56" d="M46,32h1v1H46Z"/><path class="cls-57" d="M47,32h1v1H47Z"/><path class="cls-58" d="M51,32h1v1H51Z"/><path class="cls-59" d="M52,32h1v1H52Z"/><path class="cls-60" d="M76,32h1v1H76Z"/><path class="cls-61" d="M80,32h1v1H80Z"/><path class="cls-62" d="M81,32h1v1H81Z"/><path class="cls-38" d="M82,32h1v1H82Z"/><path class="cls-1" d="M83,32h1v1h3v1h1v1h1v8H88v2H87v1H86v1H81V46H80V45H79V42H78V38h1V35h1V34h1V33h2Z"/><path class="cls-63" d="M84,32h1v1H84Z"/><path class="cls-64" d="M85,32h1v1H85Z"/><path class="cls-65" d="M86,32h1v1H86Z"/><path class="cls-66" d="M87,32h1v1H87Z"/><path class="cls-67" d="M91,32h1v1H91Z"/><path class="cls-48" d="M11,33h1v1H11Z"/><path class="cls-68" d="M12,33H26v1H12Z"/><path class="cls-69" d="M26,33h1v1H26Z"/><path class="cls-70" d="M36,33h1v1H36Z"/><path class="cls-71" d="M40,33h1v1H40Z"/><path class="cls-9" d="M41,33h1v1H41Z"/><path class="cls-72" d="M47,33h1v1H47Z"/><path class="cls-73" d="M48,33h1v1H48Z"/><path class="cls-74" d="M52,33h1v1H52Z"/><path class="cls-75" d="M75,33h1v1H75Z"/><path class="cls-76" d="M76,33h1v1H76Z"/><path class="cls-77" d="M79,33h1v1H79Z"/><path class="cls-78" d="M80,33h1v1H80Z"/><path class="cls-79" d="M87,33h1v1H87Z"/><path class="cls-80" d="M88,33h1v1H88Z"/><path class="cls-28" d="M91,33h1v1H91Z"/><path class="cls-81" d="M92,33h1v1H92Z"/><path class="cls-82" d="M35,34h1v1H35Z"/><path class="cls-61" d="M36,34h1v1H36Z"/><path class="cls-49" d="M39,34h1v1H39Z"/><path class="cls-72" d="M40,34h1v1H40Z"/><path class="cls-83" d="M48,34h1v1H48Z"/><path class="cls-84" d="M49,34h1v1H49Z"/><path class="cls-85" d="M52,34h1v1H52Z"/><path class="cls-86" d="M75,34h1v1H75Z"/><path class="cls-44" d="M78,34h1v1H78Z"/><path class="cls-87" d="M79,34h1v1H79Z"/><path class="cls-88" d="M88,34h1v1H88Z"/><path class="cls-89" d="M92,34h1v1H92Z"/><path class="cls-18" d="M35,35h1v1H35Z"/><path class="cls-7" d="M39,35h1v1H39Z"/><path class="cls-90" d="M49,35h1v1H49Z"/><path class="cls-91" d="M53,35h1v1H53Z"/><path class="cls-92" d="M74,35h1v1H74Z"/><path class="cls-93" d="M78,35h1v1H78Z"/><path class="cls-94" d="M89,35h1v1H89Z"/><path class="cls-95" d="M92,35h1v1H92Z"/><path class="cls-48" d="M11,36h1v1H11Z"/><path class="cls-96" d="M12,36H26v1H12Z"/><path class="cls-61" d="M26,36h1v1H26Z"/><path class="cls-97" d="M35,36h1v1H35Z"/><path class="cls-12" d="M38,36h1v1H38Z"/><path class="cls-72" d="M39,36h1v1H39Z"/><path class="cls-98" d="M49,36h1v1H49Z"/><path class="cls-99" d="M53,36h1v1H53Z"/><path class="cls-100" d="M74,36h1v1H74Z"/><path class="cls-101" d="M78,36h1v1H78Z"/><path class="cls-102" d="M89,36h1v1H89Z"/><path class="cls-103" d="M92,36h1v1H92Z"/><path class="cls-24" d="M93,36h1v1H93Z"/><path class="cls-12" d="M11,37h1V50H11Z"/><path class="cls-13" d="M26,37h1V50H26Z"/><path class="cls-69" d="M35,37h1v1H35Z"/><path class="cls-104" d="M38,37h1v1H38Z"/><path class="cls-105" d="M50,37h1v1H50Z"/><path class="cls-106" d="M53,37h1v1H53Z"/><path class="cls-107" d="M74,37h1v1H74Z"/><path class="cls-76" d="M77,37h1v1H77Z"/><path class="cls-82" d="M78,37h1v1H78Z"/><path class="cls-108" d="M89,37h1v1H89Z"/><path class="cls-109" d="M93,37h1v1H93Z"/><path class="cls-94" d="M35,38h1v1H35Z"/><path class="cls-48" d="M38,38h1v1H38Z"/><path class="cls-110" d="M39,38H50v1H39Z"/><path class="cls-48" d="M50,38h1v1H50Z"/><path class="cls-86" d="M53,38h1v1H53Z"/><path class="cls-71" d="M74,38h1v1H74Z"/><path class="cls-111" d="M77,38h1v1H77Z"/><path class="cls-4" d="M89,38h1v1H89Z"/><path class="cls-70" d="M93,38h1v1H93Z"/><path class="cls-112" d="M34,39h1v1H34Z"/><path class="cls-48" d="M35,39h1v1H35Z"/><path class="cls-73" d="M53,39h1v1H53Z"/><path class="cls-36" d="M74,39h1v1H74Z"/><path class="cls-113" d="M77,39h1v1H77Z"/><path class="cls-114" d="M89,39h1v1H89Z"/><path class="cls-115" d="M93,39h1v1H93Z"/><path class="cls-81" d="M34,40h1v1H34Z"/><path class="cls-45" d="M38,40h1v1H38Z"/><path class="cls-116" d="M39,40H53v1H39Z"/><path class="cls-97" d="M53,40h1v1H53Z"/><path class="cls-77" d="M74,40h1v1H74Z"/><path class="cls-117" d="M77,40h1v1H77Z"/><path class="cls-56" d="M89,40h1v1H89Z"/><path class="cls-32" d="M93,40h1v1H93Z"/><path class="cls-11" d="M35,41h1v1H35Z"/><path class="cls-118" d="M38,41h1v1H38Z"/><path class="cls-119" d="M74,41h1v1H74Z"/><path class="cls-94" d="M77,41h1v1H77Z"/><path class="cls-120" d="M89,41h1v1H89Z"/><path class="cls-87" d="M93,41h1v1H93Z"/><path class="cls-57" d="M35,42h1v1H35Z"/><path class="cls-121" d="M38,42h1v1H38Z"/><path class="cls-122" d="M74,42h1v1H74Z"/><path class="cls-76" d="M77,42h1v1H77Z"/><path class="cls-82" d="M78,42h1v1H78Z"/><path class="cls-123" d="M89,42h1v1H89Z"/><path class="cls-66" d="M92,42h1v1H92Z"/><path class="cls-30" d="M35,43h1v1H35Z"/><path class="cls-124" d="M38,43h1v1H38Z"/><path class="cls-81" d="M39,43h1v1H39Z"/><path class="cls-125" d="M49,43h1v1H49Z"/><path class="cls-126" d="M50,43h3v1H50Z"/><path class="cls-127" d="M53,43h1v1H53Z"/><path class="cls-128" d="M74,43h1v1H74Z"/><path class="cls-129" d="M78,43h1v1H78Z"/><path class="cls-20" d="M88,43h1v1H88Z"/><path class="cls-130" d="M89,43h1v1H89Z"/><path class="cls-77" d="M92,43h1v1H92Z"/><path class="cls-131" d="M35,44h1v1H35Z"/><path class="cls-132" d="M39,44h1v1H39Z"/><path class="cls-107" d="M49,44h1v1H49Z"/><path class="cls-48" d="M52,44h1v1H52Z"/><path class="cls-10" d="M53,44h1v1H53Z"/><path class="cls-64" d="M74,44h1v1H74Z"/><path class="cls-133" d="M78,44h1v1H78Z"/><path class="cls-134" d="M88,44h1v1H88Z"/><path class="cls-135" d="M92,44h1v1H92Z"/><path class="cls-83" d="M35,45h1v1H35Z"/><path class="cls-136" d="M36,45h1v1H36Z"/><path class="cls-42" d="M39,45h1v1H39Z"/><path class="cls-125" d="M40,45h1v1H40Z"/><path class="cls-137" d="M48,45h1v1H48Z"/><path class="cls-66" d="M49,45h1v1H49Z"/><path class="cls-117" d="M52,45h1v1H52Z"/><path class="cls-138" d="M75,45h1v1H75Z"/><path class="cls-29" d="M78,45h1v1H78Z"/><path class="cls-139" d="M79,45h1v1H79Z"/><path class="cls-59" d="M87,45h1v1H87Z"/><path class="cls-140" d="M88,45h1v1H88Z"/><path class="cls-141" d="M91,45h1v1H91Z"/><path class="cls-112" d="M92,45h1v1H92Z"/><path class="cls-62" d="M36,46h1v1H36Z"/><path class="cls-104" d="M40,46h1v1H40Z"/><path class="cls-142" d="M41,46h1v1H41Z"/><path class="cls-32" d="M47,46h1v1H47Z"/><path class="cls-15" d="M48,46h1v1H48Z"/><path class="cls-124" d="M51,46h1v1H51Z"/><path class="cls-143" d="M52,46h1v1H52Z"/><path class="cls-144" d="M75,46h1v1H75Z"/><path class="cls-12" d="M76,46h1v1H76Z"/><path class="cls-145" d="M79,46h1v1H79Z"/><path class="cls-70" d="M80,46h1v1H80Z"/><path class="cls-112" d="M86,46h1v1H86Z"/><path class="cls-57" d="M87,46h1v1H87Z"/><path class="cls-146" d="M91,46h1v1H91Z"/><path class="cls-133" d="M37,47h1v1H37Z"/><path class="cls-147" d="M41,47h1v1H41Z"/><path class="cls-71" d="M42,47h1v1H42Z"/><path class="cls-146" d="M43,47h1v1H43Z"/><path class="cls-148" d="M44,47h1v1H44Z"/><path class="cls-126" d="M45,47h1v1H45Z"/><path class="cls-149" d="M46,47h1v1H46Z"/><path class="cls-76" d="M47,47h1v1H47Z"/><path class="cls-150" d="M51,47h1v1H51Z"/><path class="cls-151" d="M76,47h1v1H76Z"/><path class="cls-12" d="M80,47h1v1H80Z"/><path class="cls-43" d="M81,47h1v1H81Z"/><path class="cls-152" d="M82,47h1v1H82Z"/><path class="cls-134" d="M83,47h1v1H83Z"/><path class="cls-131" d="M84,47h1v1H84Z"/><path class="cls-71" d="M85,47h1v1H85Z"/><path class="cls-58" d="M86,47h1v1H86Z"/><path class="cls-49" d="M90,47h1v1H90Z"/><path class="cls-9" d="M91,47h1v1H91Z"/><path class="cls-9" d="M37,48h1v1H37Z"/><path class="cls-60" d="M38,48h1v1H38Z"/><path class="cls-106" d="M50,48h1v1H50Z"/><path class="cls-63" d="M51,48h1v1H51Z"/><path class="cls-63" d="M76,48h1v1H76Z"/><path class="cls-153" d="M77,48h1v1H77Z"/><path class="cls-124" d="M78,48h1v1H78Z"/><path class="cls-121" d="M89,48h1v1H89Z"/><path class="cls-154" d="M90,48h1v1H90Z"/><path class="cls-155" d="M39,49h1v1H39Z"/><path class="cls-105" d="M40,49h1v1H40Z"/><path class="cls-156" d="M48,49h1v1H48Z"/><path class="cls-157" d="M49,49h1v1H49Z"/><path class="cls-143" d="M78,49h1v1H78Z"/><path class="cls-28" d="M79,49h1v1H79Z"/><path class="cls-12" d="M87,49h1v1H87Z"/><path class="cls-151" d="M88,49h1v1H88Z"/><path class="cls-158" d="M89,49h1v1H89Z"/><path class="cls-9" d="M40,50h1v1H40Z"/><path class="cls-159" d="M41,50h1v1H41Z"/><path class="cls-160" d="M42,50h1v1H42Z"/><path class="cls-16" d="M43,50h1v1H43Z"/><path class="cls-133" d="M44,50h1v1H44Z"/><path class="cls-161" d="M45,50h1v1H45Z"/><path class="cls-120" d="M46,50h1v1H46Z"/><path class="cls-162" d="M47,50h1v1H47Z"/><path class="cls-72" d="M79,50h1v1H79Z"/><path class="cls-8" d="M80,50h1v1H80Z"/><path class="cls-163" d="M81,50h1v1H81Z"/><path class="cls-161" d="M82,50h1v1H82Z"/><path class="cls-164" d="M83,50h1v1H83Z"/><path class="cls-165" d="M84,50h1v1H84Z"/><path class="cls-166" d="M85,50h1v1H85Z"/><path class="cls-115" d="M86,50h1v1H86Z"/><path class="cls-47" d="M87,50h1v1H87Z"/><path d="M98,2V98H2V2H98m2-2H0V100H100V0Z"/></svg>