<svg id="Layer_1" data-name="Layer 1" xmlns="http://www.w3.org/2000/svg" viewBox="0 0 100 100"><defs><style>.cls-1{fill:#fff;}.cls-2{fill:none;stroke:#000;stroke-miterlimit:10;stroke-width:1px;}</style></defs><rect class="cls-1" x="1" y="1" width="98" height="98"/><path d="M98,2V98H2V2H98m2-2H0V100H100V0Z"/><line class="cls-2" x1="5.54" y1="15" x2="94.46" y2="15"/><polygon points="2 15 6.99 17.04 5.81 15 6.99 12.96 2 15"/><polygon points="98 15 93.01 17.04 94.19 15 93.01 12.96 98 15"/><line class="cls-2" x1="15" y1="94.46" x2="15" y2="5.54"/><polygon points="15 98 17.04 93.01 15 94.19 12.96 93.01 15 98"/><polygon points="15 2 17.04 6.99 15 5.81 12.96 6.99 15 2"/><path d="M25.64,27.59a1.53,1.53,0,0,0-1.32.64A2.93,2.93,0,0,0,23.85,30c0,1.59.59,2.39,1.79,2.39A5.69,5.69,0,0,0,27.46,32V33.3a5.15,5.15,0,0,1-2,.37,3,3,0,0,1-2.39-1A4,4,0,0,1,22.29,30a4.44,4.44,0,0,1,.4-2,2.93,2.93,0,0,1,1.17-1.29,3.53,3.53,0,0,1,1.78-.44,4.89,4.89,0,0,1,2.09.5l-.49,1.23a6.89,6.89,0,0,0-.81-.33A2.48,2.48,0,0,0,25.64,27.59Z"/><path d="M32.33,33.57,32,32.83h0a2.24,2.24,0,0,1-.77.65,2.39,2.39,0,0,1-1,.19A1.69,1.69,0,0,1,29,33.22a1.74,1.74,0,0,1-.45-1.28,1.42,1.42,0,0,1,.61-1.28,3.44,3.44,0,0,1,1.83-.46l.95,0v-.24A.74.74,0,0,0,31,29.1a3.78,3.78,0,0,0-1.54.4l-.49-1A4.41,4.41,0,0,1,31.1,28a2.59,2.59,0,0,1,1.68.48,1.76,1.76,0,0,1,.59,1.45v3.64ZM31.89,31l-.58,0a1.83,1.83,0,0,0-1,.23A.74.74,0,0,0,30,32q0,.63.72.63a1.14,1.14,0,0,0,.83-.3,1,1,0,0,0,.31-.79Z"/><path d="M39.94,33.57H38.45V30.38a1.56,1.56,0,0,0-.21-.89.78.78,0,0,0-.67-.29,1,1,0,0,0-.9.42A2.54,2.54,0,0,0,36.39,31v2.57H34.9V28.11H36l.2.7h.08a1.61,1.61,0,0,1,.69-.6,2.4,2.4,0,0,1,1-.2,1.93,1.93,0,0,1,1.45.51A2.08,2.08,0,0,1,39.94,30Z"/><path d="M42.77,33.57l-2.08-5.46h1.56l1,3.11a4.81,4.81,0,0,1,.22,1.12h0a5.09,5.09,0,0,1,.22-1.12l1-3.11h1.56L44.3,33.57Z"/><path d="M50.63,33.57l-.29-.74h0a2.24,2.24,0,0,1-.77.65,2.39,2.39,0,0,1-1,.19,1.69,1.69,0,0,1-1.24-.45,1.74,1.74,0,0,1-.45-1.28,1.42,1.42,0,0,1,.61-1.28,3.47,3.47,0,0,1,1.83-.46l.95,0v-.24a.74.74,0,0,0-.85-.83,3.78,3.78,0,0,0-1.54.4l-.49-1A4.41,4.41,0,0,1,49.4,28a2.59,2.59,0,0,1,1.68.48,1.76,1.76,0,0,1,.59,1.45v3.64ZM50.19,31l-.58,0a1.83,1.83,0,0,0-1,.23.76.76,0,0,0-.32.66q0,.63.72.63a1.14,1.14,0,0,0,.83-.3,1,1,0,0,0,.31-.79Z"/><path d="M57,32a1.51,1.51,0,0,1-.58,1.28,2.91,2.91,0,0,1-1.75.44,5.74,5.74,0,0,1-1-.08,4.56,4.56,0,0,1-.79-.24V32.12a5.62,5.62,0,0,0,.93.33,4.3,4.3,0,0,0,.92.13c.54,0,.81-.16.81-.47a.38.38,0,0,0-.11-.29,1.76,1.76,0,0,0-.37-.25c-.17-.09-.41-.2-.7-.32a4.75,4.75,0,0,1-.93-.49,1.47,1.47,0,0,1-.43-.51,1.93,1.93,0,0,1-.13-.72,1.3,1.3,0,0,1,.56-1.12A2.72,2.72,0,0,1,55,28a4.48,4.48,0,0,1,1.92.43l-.45,1.07c-.27-.12-.53-.21-.76-.29a2.58,2.58,0,0,0-.73-.11q-.66,0-.66.36a.4.4,0,0,0,.21.34,5.17,5.17,0,0,0,.93.44,4.2,4.2,0,0,1,.94.48,1.44,1.44,0,0,1,.44.52A1.68,1.68,0,0,1,57,32Z"/><path d="M65.1,31.59a1.85,1.85,0,0,1-.69,1.52,3,3,0,0,1-1.94.56,4.62,4.62,0,0,1-2-.43V31.83a8.16,8.16,0,0,0,1.22.46,4,4,0,0,0,.92.13,1.35,1.35,0,0,0,.76-.19.66.66,0,0,0,.27-.57.61.61,0,0,0-.12-.37,1.32,1.32,0,0,0-.34-.32,9.7,9.7,0,0,0-.93-.48,4.47,4.47,0,0,1-1-.59,2.2,2.2,0,0,1-.52-.66,1.9,1.9,0,0,1-.2-.88,1.87,1.87,0,0,1,.64-1.49A2.68,2.68,0,0,1,63,26.33a4.11,4.11,0,0,1,1.06.13,7.48,7.48,0,0,1,1.06.37L64.58,28a6.43,6.43,0,0,0-.95-.33,3,3,0,0,0-.73-.09.93.93,0,0,0-.66.2.67.67,0,0,0-.23.52.68.68,0,0,0,.09.35,1.19,1.19,0,0,0,.3.29,8.47,8.47,0,0,0,1,.5,3.83,3.83,0,0,1,1.37,1A1.85,1.85,0,0,1,65.1,31.59Z"/><path d="M68.75,33.67a2.83,2.83,0,0,1-2.06-.73A2.74,2.74,0,0,1,66,30.88a3,3,0,0,1,.68-2.12,2.45,2.45,0,0,1,1.9-.75,2.4,2.4,0,0,1,1.8.66A2.48,2.48,0,0,1,71,30.49v.72H67.46a1.43,1.43,0,0,0,.37,1,1.32,1.32,0,0,0,1,.36,4.57,4.57,0,0,0,.93-.1,4.89,4.89,0,0,0,.92-.33v1.15a3.34,3.34,0,0,1-.84.29A4.72,4.72,0,0,1,68.75,33.67Zm-.21-4.6a.94.94,0,0,0-.74.3,1.4,1.4,0,0,0-.31.85h2.09a1.23,1.23,0,0,0-.29-.85A1,1,0,0,0,68.54,29.07Z"/><path d="M74.49,32.48a3.29,3.29,0,0,0,.93-.17v1.11a3.41,3.41,0,0,1-1.36.25,1.67,1.67,0,0,1-1.3-.45,2,2,0,0,1-.41-1.36V29.23h-.72V28.6l.83-.5L72.88,27h1v1.16h1.53v1.12H73.84v2.63a.58.58,0,0,0,.18.47A.68.68,0,0,0,74.49,32.48Z"/><path d="M80.39,33.57l-.2-.7h-.07a1.64,1.64,0,0,1-.68.59,2.33,2.33,0,0,1-1,.21A1.88,1.88,0,0,1,77,33.15a2.05,2.05,0,0,1-.49-1.48V28.11H78V31.3a1.56,1.56,0,0,0,.21.89.78.78,0,0,0,.67.29,1,1,0,0,0,.9-.42,2.54,2.54,0,0,0,.28-1.38V28.11h1.49v5.46Z"/><path d="M86.1,33.67a1.82,1.82,0,0,1-1.51-.7h-.08c0,.45.08.72.08.79V36H83.1V28.11h1.21l.21.71h.07A1.72,1.72,0,0,1,86.14,28a1.78,1.78,0,0,1,1.51.74,3.43,3.43,0,0,1,.55,2.08,4.13,4.13,0,0,1-.26,1.52,2.07,2.07,0,0,1-.73,1A1.9,1.9,0,0,1,86.1,33.67Zm-.44-4.47a.94.94,0,0,0-.81.34,2,2,0,0,0-.26,1.12v.16a2.32,2.32,0,0,0,.26,1.26.94.94,0,0,0,.83.38c.67,0,1-.55,1-1.65a2.3,2.3,0,0,0-.25-1.21A.83.83,0,0,0,85.66,29.2Z"/><path d="M24.54,45.57h-.8V40.48c0-.42,0-.82,0-1.2l-.23.22-1.16,1L22,39.89l1.89-1.46h.69Z"/><path d="M30.9,42a5.17,5.17,0,0,1-.59,2.76,2,2,0,0,1-1.78.92,1.94,1.94,0,0,1-1.75-.94,5.11,5.11,0,0,1-.6-2.74,5.2,5.2,0,0,1,.58-2.77,2.15,2.15,0,0,1,3.53,0A5,5,0,0,1,30.9,42ZM27,42a5.33,5.33,0,0,0,.36,2.27,1.24,1.24,0,0,0,1.17.71,1.22,1.22,0,0,0,1.17-.72A5.13,5.13,0,0,0,30.07,42a5.06,5.06,0,0,0-.37-2.25A1.22,1.22,0,0,0,28.53,39a1.24,1.24,0,0,0-1.17.71A5.25,5.25,0,0,0,27,42Z"/><path d="M36.62,42A5.17,5.17,0,0,1,36,44.75a2.15,2.15,0,0,1-3.54,0,5.11,5.11,0,0,1-.6-2.74,5.29,5.29,0,0,1,.58-2.77,2.16,2.16,0,0,1,3.54,0A5.11,5.11,0,0,1,36.62,42Zm-3.91,0a5.31,5.31,0,0,0,.37,2.27,1.31,1.31,0,0,0,2.34,0A5.29,5.29,0,0,0,35.79,42a5.2,5.2,0,0,0-.37-2.25,1.31,1.31,0,0,0-2.34,0A5.22,5.22,0,0,0,32.71,42Z"/><path d="M42.46,45.67a2.28,2.28,0,0,1-1-.2,1.73,1.73,0,0,1-.73-.59h-.06a7,7,0,0,1,.06.89V48H40V40.22h.66l.11.73h0a1.89,1.89,0,0,1,.73-.63,2.21,2.21,0,0,1,1-.2,2,2,0,0,1,1.65.73,3.92,3.92,0,0,1,0,4.09A2,2,0,0,1,42.46,45.67Zm-.11-4.86a1.44,1.44,0,0,0-1.19.45,2.42,2.42,0,0,0-.38,1.45v.18a2.66,2.66,0,0,0,.38,1.61,1.41,1.41,0,0,0,1.21.49,1.25,1.25,0,0,0,1.08-.56,2.69,2.69,0,0,0,.39-1.55,2.59,2.59,0,0,0-.39-1.54A1.3,1.3,0,0,0,42.35,40.81Z"/><path d="M47.39,42.83l-1.86-2.61h.92l1.41,2.05,1.41-2.05h.91l-1.86,2.61,2,2.74h-.92l-1.5-2.17-1.51,2.17h-.92Z"/><path d="M57.07,39.83l.47.48L55.82,42l1.71,1.72-.47.48-1.73-1.71-1.7,1.71-.49-.48L54.85,42l-1.72-1.72.49-.49,1.72,1.73Z"/><path d="M63,45.57h-.8V40.48c0-.42,0-.82,0-1.2a2.49,2.49,0,0,1-.23.22l-1.16,1-.43-.56,1.89-1.46H63Z"/><path d="M69.39,42a5.17,5.17,0,0,1-.59,2.76,2.14,2.14,0,0,1-3.53,0,5.11,5.11,0,0,1-.6-2.74,5.2,5.2,0,0,1,.58-2.77,2.15,2.15,0,0,1,3.53,0A5,5,0,0,1,69.39,42Zm-3.9,0a5.33,5.33,0,0,0,.36,2.27A1.24,1.24,0,0,0,67,45a1.22,1.22,0,0,0,1.17-.72A5.13,5.13,0,0,0,68.56,42a5.06,5.06,0,0,0-.37-2.25A1.22,1.22,0,0,0,67,39a1.24,1.24,0,0,0-1.17.71A5.25,5.25,0,0,0,65.49,42Z"/><path d="M75.11,42a5.17,5.17,0,0,1-.59,2.76,2.15,2.15,0,0,1-3.54,0,5.11,5.11,0,0,1-.6-2.74A5.29,5.29,0,0,1,71,39.22a2.16,2.16,0,0,1,3.54,0A5.11,5.11,0,0,1,75.11,42ZM71.2,42a5.31,5.31,0,0,0,.37,2.27,1.31,1.31,0,0,0,2.34,0A5.29,5.29,0,0,0,74.28,42a5.2,5.2,0,0,0-.37-2.25,1.31,1.31,0,0,0-2.34,0A5.22,5.22,0,0,0,71.2,42Z"/><path d="M81,45.67a2.28,2.28,0,0,1-1-.2,1.73,1.73,0,0,1-.73-.59h-.06a7,7,0,0,1,.06.89V48h-.81V40.22h.66l.11.73h0a1.89,1.89,0,0,1,.73-.63,2.24,2.24,0,0,1,1-.2,2,2,0,0,1,1.65.73,3.92,3.92,0,0,1,0,4.09A2,2,0,0,1,81,45.67Zm-.11-4.86a1.44,1.44,0,0,0-1.19.45,2.42,2.42,0,0,0-.38,1.45v.18a2.66,2.66,0,0,0,.38,1.61,1.41,1.41,0,0,0,1.21.49,1.25,1.25,0,0,0,1.08-.56,2.69,2.69,0,0,0,.39-1.55,2.59,2.59,0,0,0-.39-1.54A1.3,1.3,0,0,0,80.84,40.81Z"/><path d="M85.88,42.83,84,40.22h.92l1.41,2.05,1.41-2.05h.91l-1.86,2.61,2,2.74h-.92l-1.5-2.17-1.51,2.17h-.92Z"/></svg>