<svg id="Layer_1" data-name="Layer 1" xmlns="http://www.w3.org/2000/svg" viewBox="0 0 1000 1000"><defs><style>.cls-1{fill:#fff;}</style></defs><rect class="cls-1" width="1000" height="1000"/><circle cx="80" cy="210" r="3.5"/><circle cx="80" cy="220" r="3.5"/><circle cx="80" cy="230" r="3.5"/><circle cx="80" cy="240" r="3.5"/><circle cx="80" cy="250" r="3.5"/><circle cx="80" cy="260" r="3.5"/><circle cx="80" cy="270" r="3.5"/><circle cx="80" cy="280" r="3.5"/><circle cx="80" cy="290" r="3.5"/><circle cx="80" cy="300" r="3.5"/><circle cx="80" cy="310" r="3.5"/><circle cx="80" cy="320" r="3.5"/><circle cx="80" cy="330" r="3.5"/><circle cx="80" cy="340" r="3.5"/><circle cx="80" cy="350" r="3.5"/><circle cx="80" cy="360" r="3.5"/><circle cx="80" cy="370" r="3.5"/><circle cx="80" cy="380" r="3.5"/><circle cx="80" cy="390" r="3.5"/><circle cx="80" cy="400" r="3.5"/><circle cx="80" cy="410" r="3.5"/><circle cx="80" cy="420" r="3.5"/><circle cx="80" cy="430" r="3.5"/><circle cx="80" cy="440" r="3.5"/><circle cx="80" cy="450" r="3.5"/><circle cx="80" cy="460" r="3.5"/><circle cx="80" cy="470" r="3.5"/><circle cx="80" cy="480" r="3.5"/><circle cx="80" cy="490" r="3.5"/><circle cx="90" cy="210" r="3.5"/><circle cx="90" cy="220" r="3.5"/><circle cx="90" cy="230" r="3.5"/><circle cx="90" cy="240" r="3.5"/><circle cx="90" cy="250" r="3.5"/><circle cx="90" cy="260" r="3.5"/><circle cx="90" cy="270" r="3.5"/><circle cx="90" cy="280" r="3.5"/><circle cx="90" cy="290" r="3.5"/><circle cx="90" cy="300" r="3.5"/><circle cx="90" cy="310" r="3.5"/><circle cx="90" cy="320" r="3.5"/><circle cx="90" cy="330" r="3.5"/><circle cx="90" cy="340" r="3.5"/><circle cx="90" cy="350" r="3.5"/><circle cx="90" cy="360" r="3.5"/><circle cx="90" cy="370" r="3.5"/><circle cx="90" cy="380" r="3.5"/><circle cx="90" cy="390" r="3.5"/><circle cx="90" cy="400" r="3.5"/><circle cx="90" cy="410" r="3.5"/><circle cx="90" cy="420" r="3.5"/><circle cx="90" cy="430" r="3.5"/><circle cx="90" cy="440" r="3.5"/><circle cx="90" cy="450" r="3.5"/><circle cx="90" cy="460" r="3.5"/><circle cx="90" cy="470" r="3.5"/><circle cx="90" cy="480" r="3.5"/><circle cx="90" cy="490" r="3.5"/><circle cx="100" cy="210" r="3.5"/><circle cx="100" cy="220" r="3.5"/><circle cx="100" cy="230" r="3.5"/><circle cx="100" cy="240" r="3.5"/><circle cx="100" cy="250" r="3.5"/><circle cx="100" cy="260" r="3.5"/><circle cx="100" cy="270" r="3.5"/><circle cx="100" cy="280" r="3.5"/><circle cx="100" cy="290" r="3.5"/><circle cx="100" cy="300" r="3.5"/><circle cx="100" cy="310" r="3.5"/><circle cx="100" cy="320" r="3.5"/><circle cx="100" cy="330" r="3.5"/><circle cx="100" cy="340" r="3.5"/><circle cx="100" cy="350" r="3.5"/><circle cx="100" cy="360" r="3.5"/><circle cx="100" cy="370" r="3.5"/><circle cx="100" cy="380" r="3.5"/><circle cx="100" cy="390" r="3.5"/><circle cx="100" cy="400" r="3.5"/><circle cx="100" cy="410" r="3.5"/><circle cx="100" cy="420" r="3.5"/><circle cx="100" cy="430" r="3.5"/><circle cx="100" cy="440" r="3.5"/><circle cx="100" cy="450" r="3.5"/><circle cx="100" cy="460" r="3.5"/><circle cx="100" cy="470" r="3.5"/><circle cx="100" cy="480" r="3.5"/><circle cx="100" cy="490" r="3.5"/><circle cx="110" cy="210" r="3.5"/><circle cx="110" cy="220" r="3.5"/><circle cx="110" cy="230" r="3.5"/><circle cx="110" cy="240" r="3.5"/><circle cx="110" cy="250" r="3.5"/><circle cx="110" cy="260" r="3.5"/><circle cx="110" cy="270" r="3.5"/><circle cx="110" cy="280" r="3.5"/><circle cx="110" cy="290" r="3.5"/><circle cx="110" cy="300" r="3.5"/><circle cx="110" cy="310" r="3.5"/><circle cx="110" cy="320" r="3.5"/><circle cx="110" cy="330" r="3.5"/><circle cx="110" cy="340" r="3.5"/><circle cx="110" cy="350" r="3.5"/><circle cx="110" cy="360" r="3.5"/><circle cx="110" cy="370" r="3.5"/><circle cx="110" cy="380" r="3.5"/><circle cx="110" cy="390" r="3.5"/><circle cx="110" cy="400" r="3.5"/><circle cx="110" cy="410" r="3.5"/><circle cx="110" cy="420" r="3.5"/><circle cx="110" cy="430" r="3.5"/><circle cx="110" cy="440" r="3.5"/><circle cx="110" cy="450" r="3.5"/><circle cx="110" cy="460" r="3.5"/><circle cx="110" cy="470" r="3.5"/><circle cx="110" cy="480" r="3.5"/><circle cx="110" cy="490" r="3.5"/><circle cx="120" cy="330" r="3.5"/><circle cx="120" cy="340" r="3.5"/><circle cx="120" cy="350" r="3.5"/><circle cx="120" cy="360" r="3.5"/><circle cx="130" cy="330" r="3.5"/><circle cx="130" cy="340" r="3.5"/><circle cx="130" cy="350" r="3.5"/><circle cx="130" cy="360" r="3.5"/><circle cx="140" cy="330" r="3.5"/><circle cx="140" cy="340" r="3.5"/><circle cx="140" cy="350" r="3.5"/><circle cx="140" cy="360" r="3.5"/><circle cx="150" cy="330" r="3.5"/><circle cx="150" cy="340" r="3.5"/><circle cx="150" cy="350" r="3.5"/><circle cx="150" cy="360" r="3.5"/><circle cx="160" cy="330" r="3.5"/><circle cx="160" cy="340" r="3.5"/><circle cx="160" cy="350" r="3.5"/><circle cx="160" cy="360" r="3.5"/><circle cx="170" cy="330" r="3.5"/><circle cx="170" cy="340" r="3.5"/><circle cx="170" cy="350" r="3.5"/><circle cx="170" cy="360" r="3.5"/><circle cx="180" cy="330" r="3.5"/><circle cx="180" cy="340" r="3.5"/><circle cx="180" cy="350" r="3.5"/><circle cx="180" cy="360" r="3.5"/><circle cx="190" cy="330" r="3.5"/><circle cx="190" cy="340" r="3.5"/><circle cx="190" cy="350" r="3.5"/><circle cx="190" cy="360" r="3.5"/><circle cx="200" cy="330" r="3.5"/><circle cx="200" cy="340" r="3.5"/><circle cx="200" cy="350" r="3.5"/><circle cx="200" cy="360" r="3.5"/><circle cx="210" cy="330" r="3.5"/><circle cx="210" cy="340" r="3.5"/><circle cx="210" cy="350" r="3.5"/><circle cx="210" cy="360" r="3.5"/><circle cx="220" cy="330" r="3.5"/><circle cx="220" cy="340" r="3.5"/><circle cx="220" cy="350" r="3.5"/><circle cx="220" cy="360" r="3.5"/><circle cx="230" cy="330" r="3.5"/><circle cx="230" cy="340" r="3.5"/><circle cx="230" cy="350" r="3.5"/><circle cx="230" cy="360" r="3.5"/><circle cx="240" cy="330" r="3.5"/><circle cx="240" cy="340" r="3.5"/><circle cx="240" cy="350" r="3.5"/><circle cx="240" cy="360" r="3.5"/><circle cx="250" cy="330" r="3.5"/><circle cx="250" cy="340" r="3.5"/><circle cx="250" cy="350" r="3.5"/><circle cx="250" cy="360" r="3.5"/><circle cx="260" cy="210" r="3.5"/><circle cx="260" cy="220" r="3.5"/><circle cx="260" cy="230" r="3.5"/><circle cx="260" cy="240" r="3.5"/><circle cx="260" cy="250" r="3.5"/><circle cx="260" cy="260" r="3.5"/><circle cx="260" cy="270" r="3.5"/><circle cx="260" cy="280" r="3.5"/><circle cx="260" cy="290" r="3.5"/><circle cx="260" cy="300" r="3.5"/><circle cx="260" cy="310" r="3.5"/><circle cx="260" cy="320" r="3.5"/><circle cx="260" cy="330" r="3.5"/><circle cx="260" cy="340" r="3.5"/><circle cx="260" cy="350" r="3.5"/><circle cx="260" cy="360" r="3.5"/><circle cx="260" cy="370" r="3.5"/><circle cx="260" cy="380" r="3.5"/><circle cx="260" cy="390" r="3.5"/><circle cx="260" cy="400" r="3.5"/><circle cx="260" cy="410" r="3.5"/><circle cx="260" cy="420" r="3.5"/><circle cx="260" cy="430" r="3.5"/><circle cx="260" cy="440" r="3.5"/><circle cx="260" cy="450" r="3.5"/><circle cx="260" cy="460" r="3.5"/><circle cx="260" cy="470" r="3.5"/><circle cx="260" cy="480" r="3.5"/><circle cx="260" cy="490" r="3.5"/><circle cx="270" cy="210" r="3.5"/><circle cx="270" cy="220" r="3.5"/><circle cx="270" cy="230" r="3.5"/><circle cx="270" cy="240" r="3.5"/><circle cx="270" cy="250" r="3.5"/><circle cx="270" cy="260" r="3.5"/><circle cx="270" cy="270" r="3.5"/><circle cx="270" cy="280" r="3.5"/><circle cx="270" cy="290" r="3.5"/><circle cx="270" cy="300" r="3.5"/><circle cx="270" cy="310" r="3.5"/><circle cx="270" cy="320" r="3.5"/><circle cx="270" cy="330" r="3.5"/><circle cx="270" cy="340" r="3.5"/><circle cx="270" cy="350" r="3.5"/><circle cx="270" cy="360" r="3.5"/><circle cx="270" cy="370" r="3.5"/><circle cx="270" cy="380" r="3.5"/><circle cx="270" cy="390" r="3.5"/><circle cx="270" cy="400" r="3.5"/><circle cx="270" cy="410" r="3.5"/><circle cx="270" cy="420" r="3.5"/><circle cx="270" cy="430" r="3.5"/><circle cx="270" cy="440" r="3.5"/><circle cx="270" cy="450" r="3.5"/><circle cx="270" cy="460" r="3.5"/><circle cx="270" cy="470" r="3.5"/><circle cx="270" cy="480" r="3.5"/><circle cx="270" cy="490" r="3.5"/><circle cx="280" cy="210" r="3.5"/><circle cx="280" cy="220" r="3.5"/><circle cx="280" cy="230" r="3.5"/><circle cx="280" cy="240" r="3.5"/><circle cx="280" cy="250" r="3.5"/><circle cx="280" cy="260" r="3.5"/><circle cx="280" cy="270" r="3.5"/><circle cx="280" cy="280" r="3.5"/><circle cx="280" cy="290" r="3.5"/><circle cx="280" cy="300" r="3.5"/><circle cx="280" cy="310" r="3.5"/><circle cx="280" cy="320" r="3.5"/><circle cx="280" cy="330" r="3.5"/><circle cx="280" cy="340" r="3.5"/><circle cx="280" cy="350" r="3.5"/><circle cx="280" cy="360" r="3.5"/><circle cx="280" cy="370" r="3.5"/><circle cx="280" cy="380" r="3.5"/><circle cx="280" cy="390" r="3.5"/><circle cx="280" cy="400" r="3.5"/><circle cx="280" cy="410" r="3.5"/><circle cx="280" cy="420" r="3.5"/><circle cx="280" cy="430" r="3.5"/><circle cx="280" cy="440" r="3.5"/><circle cx="280" cy="450" r="3.5"/><circle cx="280" cy="460" r="3.5"/><circle cx="280" cy="470" r="3.5"/><circle cx="280" cy="480" r="3.5"/><circle cx="280" cy="490" r="3.5"/><circle cx="290" cy="210" r="3.5"/><circle cx="290" cy="220" r="3.5"/><circle cx="290" cy="230" r="3.5"/><circle cx="290" cy="240" r="3.5"/><circle cx="290" cy="250" r="3.5"/><circle cx="290" cy="260" r="3.5"/><circle cx="290" cy="270" r="3.5"/><circle cx="290" cy="280" r="3.5"/><circle cx="290" cy="290" r="3.5"/><circle cx="290" cy="300" r="3.5"/><circle cx="290" cy="310" r="3.5"/><circle cx="290" cy="320" r="3.5"/><circle cx="290" cy="330" r="3.5"/><circle cx="290" cy="340" r="3.5"/><circle cx="290" cy="350" r="3.5"/><circle cx="290" cy="360" r="3.5"/><circle cx="290" cy="370" r="3.5"/><circle cx="290" cy="380" r="3.5"/><circle cx="290" cy="390" r="3.5"/><circle cx="290" cy="400" r="3.5"/><circle cx="290" cy="410" r="3.5"/><circle cx="290" cy="420" r="3.5"/><circle cx="290" cy="430" r="3.5"/><circle cx="290" cy="440" r="3.5"/><circle cx="290" cy="450" r="3.5"/><circle cx="290" cy="460" r="3.5"/><circle cx="290" cy="470" r="3.5"/><circle cx="290" cy="480" r="3.5"/><circle cx="290" cy="490" r="3.5"/><circle cx="300" cy="210" r="3.5"/><circle cx="300" cy="220" r="3.5"/><circle cx="300" cy="230" r="3.5"/><circle cx="300" cy="240" r="3.5"/><circle cx="300" cy="250" r="3.5"/><circle cx="300" cy="260" r="3.5"/><circle cx="300" cy="270" r="3.5"/><circle cx="300" cy="280" r="3.5"/><circle cx="300" cy="290" r="3.5"/><circle cx="300" cy="300" r="3.5"/><circle cx="300" cy="310" r="3.5"/><circle cx="300" cy="320" r="3.5"/><circle cx="300" cy="330" r="3.5"/><circle cx="300" cy="340" r="3.5"/><circle cx="300" cy="350" r="3.5"/><circle cx="300" cy="360" r="3.5"/><circle cx="300" cy="370" r="3.5"/><circle cx="300" cy="380" r="3.5"/><circle cx="300" cy="390" r="3.5"/><circle cx="300" cy="400" r="3.5"/><circle cx="300" cy="410" r="3.5"/><circle cx="300" cy="420" r="3.5"/><circle cx="300" cy="430" r="3.5"/><circle cx="300" cy="440" r="3.5"/><circle cx="300" cy="450" r="3.5"/><circle cx="300" cy="460" r="3.5"/><circle cx="300" cy="470" r="3.5"/><circle cx="300" cy="480" r="3.5"/><circle cx="300" cy="490" r="3.5"/><circle cx="340" cy="390" r="3.5"/><circle cx="340" cy="400" r="3.5"/><circle cx="350" cy="340" r="3.5"/><circle cx="350" cy="350" r="3.5"/><circle cx="350" cy="360" r="3.5"/><circle cx="350" cy="370" r="3.5"/><circle cx="350" cy="380" r="3.5"/><circle cx="350" cy="390" r="3.5"/><circle cx="350" cy="400" r="3.5"/><circle cx="350" cy="410" r="3.5"/><circle cx="350" cy="420" r="3.5"/><circle cx="350" cy="430" r="3.5"/><circle cx="350" cy="440" r="3.5"/><circle cx="350" cy="450" r="3.5"/><circle cx="360" cy="330" r="3.5"/><circle cx="360" cy="340" r="3.5"/><circle cx="360" cy="350" r="3.5"/><circle cx="360" cy="360" r="3.5"/><circle cx="360" cy="370" r="3.5"/><circle cx="360" cy="380" r="3.5"/><circle cx="360" cy="390" r="3.5"/><circle cx="360" cy="400" r="3.5"/><circle cx="360" cy="410" r="3.5"/><circle cx="360" cy="420" r="3.5"/><circle cx="360" cy="430" r="3.5"/><circle cx="360" cy="440" r="3.5"/><circle cx="360" cy="450" r="3.5"/><circle cx="360" cy="460" r="3.5"/><circle cx="370" cy="310" r="3.5"/><circle cx="370" cy="320" r="3.5"/><circle cx="370" cy="330" r="3.5"/><circle cx="370" cy="340" r="3.5"/><circle cx="370" cy="350" r="3.5"/><circle cx="370" cy="360" r="3.5"/><circle cx="370" cy="370" r="3.5"/><circle cx="370" cy="380" r="3.5"/><circle cx="370" cy="390" r="3.5"/><circle cx="370" cy="400" r="3.5"/><circle cx="370" cy="410" r="3.5"/><circle cx="370" cy="420" r="3.5"/><circle cx="370" cy="430" r="3.5"/><circle cx="370" cy="440" r="3.5"/><circle cx="370" cy="450" r="3.5"/><circle cx="370" cy="460" r="3.5"/><circle cx="370" cy="470" r="3.5"/><circle cx="370" cy="480" r="3.5"/><circle cx="380" cy="310" r="3.5"/><circle cx="380" cy="320" r="3.5"/><circle cx="380" cy="330" r="3.5"/><circle cx="380" cy="340" r="3.5"/><circle cx="380" cy="350" r="3.5"/><circle cx="380" cy="360" r="3.5"/><circle cx="380" cy="370" r="3.5"/><circle cx="380" cy="380" r="3.5"/><circle cx="380" cy="390" r="3.5"/><circle cx="380" cy="400" r="3.5"/><circle cx="380" cy="410" r="3.5"/><circle cx="380" cy="420" r="3.5"/><circle cx="380" cy="430" r="3.5"/><circle cx="380" cy="440" r="3.5"/><circle cx="380" cy="450" r="3.5"/><circle cx="380" cy="460" r="3.5"/><circle cx="380" cy="470" r="3.5"/><circle cx="380" cy="480" r="3.5"/><circle cx="390" cy="300" r="3.5"/><circle cx="390" cy="310" r="3.5"/><circle cx="390" cy="320" r="3.5"/><circle cx="390" cy="330" r="3.5"/><circle cx="390" cy="340" r="3.5"/><circle cx="390" cy="350" r="3.5"/><circle cx="390" cy="360" r="3.5"/><circle cx="390" cy="380" r="3.5"/><circle cx="390" cy="390" r="3.5"/><circle cx="390" cy="400" r="3.5"/><circle cx="390" cy="430" r="3.5"/><circle cx="390" cy="440" r="3.5"/><circle cx="390" cy="450" r="3.5"/><circle cx="390" cy="460" r="3.5"/><circle cx="390" cy="470" r="3.5"/><circle cx="390" cy="480" r="3.5"/><circle cx="390" cy="490" r="3.5"/><circle cx="400" cy="290" r="3.5"/><circle cx="400" cy="300" r="3.5"/><circle cx="400" cy="310" r="3.5"/><circle cx="400" cy="320" r="3.5"/><circle cx="400" cy="330" r="3.5"/><circle cx="400" cy="340" r="3.5"/><circle cx="400" cy="380" r="3.5"/><circle cx="400" cy="390" r="3.5"/><circle cx="400" cy="400" r="3.5"/><circle cx="400" cy="450" r="3.5"/><circle cx="400" cy="460" r="3.5"/><circle cx="400" cy="470" r="3.5"/><circle cx="400" cy="480" r="3.5"/><circle cx="400" cy="490" r="3.5"/><circle cx="400" cy="500" r="3.5"/><circle cx="410" cy="290" r="3.5"/><circle cx="410" cy="300" r="3.5"/><circle cx="410" cy="310" r="3.5"/><circle cx="410" cy="320" r="3.5"/><circle cx="410" cy="330" r="3.5"/><circle cx="410" cy="380" r="3.5"/><circle cx="410" cy="390" r="3.5"/><circle cx="410" cy="400" r="3.5"/><circle cx="410" cy="460" r="3.5"/><circle cx="410" cy="470" r="3.5"/><circle cx="410" cy="480" r="3.5"/><circle cx="410" cy="490" r="3.5"/><circle cx="410" cy="500" r="3.5"/><circle cx="420" cy="290" r="3.5"/><circle cx="420" cy="300" r="3.5"/><circle cx="420" cy="310" r="3.5"/><circle cx="420" cy="320" r="3.5"/><circle cx="420" cy="380" r="3.5"/><circle cx="420" cy="390" r="3.5"/><circle cx="420" cy="400" r="3.5"/><circle cx="420" cy="470" r="3.5"/><circle cx="420" cy="480" r="3.5"/><circle cx="420" cy="490" r="3.5"/><circle cx="420" cy="500" r="3.5"/><circle cx="430" cy="290" r="3.5"/><circle cx="430" cy="300" r="3.5"/><circle cx="430" cy="310" r="3.5"/><circle cx="430" cy="320" r="3.5"/><circle cx="430" cy="380" r="3.5"/><circle cx="430" cy="390" r="3.5"/><circle cx="430" cy="400" r="3.5"/><circle cx="430" cy="470" r="3.5"/><circle cx="430" cy="480" r="3.5"/><circle cx="430" cy="490" r="3.5"/><circle cx="430" cy="500" r="3.5"/><circle cx="440" cy="280" r="3.5"/><circle cx="440" cy="290" r="3.5"/><circle cx="440" cy="300" r="3.5"/><circle cx="440" cy="310" r="3.5"/><circle cx="440" cy="380" r="3.5"/><circle cx="440" cy="390" r="3.5"/><circle cx="440" cy="400" r="3.5"/><circle cx="440" cy="470" r="3.5"/><circle cx="440" cy="480" r="3.5"/><circle cx="440" cy="490" r="3.5"/><circle cx="440" cy="500" r="3.5"/><circle cx="450" cy="280" r="3.5"/><circle cx="450" cy="290" r="3.5"/><circle cx="450" cy="300" r="3.5"/><circle cx="450" cy="310" r="3.5"/><circle cx="450" cy="320" r="3.5"/><circle cx="450" cy="380" r="3.5"/><circle cx="450" cy="390" r="3.5"/><circle cx="450" cy="400" r="3.5"/><circle cx="450" cy="470" r="3.5"/><circle cx="450" cy="480" r="3.5"/><circle cx="450" cy="490" r="3.5"/><circle cx="450" cy="500" r="3.5"/><circle cx="460" cy="290" r="3.5"/><circle cx="460" cy="300" r="3.5"/><circle cx="460" cy="310" r="3.5"/><circle cx="460" cy="320" r="3.5"/><circle cx="460" cy="380" r="3.5"/><circle cx="460" cy="390" r="3.5"/><circle cx="460" cy="400" r="3.5"/><circle cx="460" cy="470" r="3.5"/><circle cx="460" cy="480" r="3.5"/><circle cx="460" cy="490" r="3.5"/><circle cx="460" cy="500" r="3.5"/><circle cx="470" cy="290" r="3.5"/><circle cx="470" cy="300" r="3.5"/><circle cx="470" cy="310" r="3.5"/><circle cx="470" cy="320" r="3.5"/><circle cx="470" cy="330" r="3.5"/><circle cx="470" cy="380" r="3.5"/><circle cx="470" cy="390" r="3.5"/><circle cx="470" cy="400" r="3.5"/><circle cx="470" cy="460" r="3.5"/><circle cx="470" cy="470" r="3.5"/><circle cx="470" cy="480" r="3.5"/><circle cx="470" cy="490" r="3.5"/><circle cx="470" cy="500" r="3.5"/><circle cx="480" cy="290" r="3.5"/><circle cx="480" cy="300" r="3.5"/><circle cx="480" cy="310" r="3.5"/><circle cx="480" cy="320" r="3.5"/><circle cx="480" cy="330" r="3.5"/><circle cx="480" cy="340" r="3.5"/><circle cx="480" cy="380" r="3.5"/><circle cx="480" cy="390" r="3.5"/><circle cx="480" cy="400" r="3.5"/><circle cx="480" cy="450" r="3.5"/><circle cx="480" cy="460" r="3.5"/><circle cx="480" cy="470" r="3.5"/><circle cx="480" cy="480" r="3.5"/><circle cx="480" cy="490" r="3.5"/><circle cx="490" cy="300" r="3.5"/><circle cx="490" cy="310" r="3.5"/><circle cx="490" cy="320" r="3.5"/><circle cx="490" cy="330" r="3.5"/><circle cx="490" cy="340" r="3.5"/><circle cx="490" cy="350" r="3.5"/><circle cx="490" cy="360" r="3.5"/><circle cx="490" cy="380" r="3.5"/><circle cx="490" cy="390" r="3.5"/><circle cx="490" cy="400" r="3.5"/><circle cx="490" cy="430" r="3.5"/><circle cx="490" cy="440" r="3.5"/><circle cx="490" cy="450" r="3.5"/><circle cx="490" cy="460" r="3.5"/><circle cx="490" cy="470" r="3.5"/><circle cx="490" cy="480" r="3.5"/><circle cx="490" cy="490" r="3.5"/><circle cx="500" cy="300" r="3.5"/><circle cx="500" cy="310" r="3.5"/><circle cx="500" cy="320" r="3.5"/><circle cx="500" cy="330" r="3.5"/><circle cx="500" cy="340" r="3.5"/><circle cx="500" cy="350" r="3.5"/><circle cx="500" cy="360" r="3.5"/><circle cx="500" cy="370" r="3.5"/><circle cx="500" cy="380" r="3.5"/><circle cx="500" cy="390" r="3.5"/><circle cx="500" cy="400" r="3.5"/><circle cx="500" cy="430" r="3.5"/><circle cx="500" cy="440" r="3.5"/><circle cx="500" cy="450" r="3.5"/><circle cx="500" cy="460" r="3.5"/><circle cx="500" cy="470" r="3.5"/><circle cx="500" cy="480" r="3.5"/><circle cx="510" cy="310" r="3.5"/><circle cx="510" cy="320" r="3.5"/><circle cx="510" cy="330" r="3.5"/><circle cx="510" cy="340" r="3.5"/><circle cx="510" cy="350" r="3.5"/><circle cx="510" cy="360" r="3.5"/><circle cx="510" cy="370" r="3.5"/><circle cx="510" cy="380" r="3.5"/><circle cx="510" cy="390" r="3.5"/><circle cx="510" cy="400" r="3.5"/><circle cx="510" cy="430" r="3.5"/><circle cx="510" cy="440" r="3.5"/><circle cx="510" cy="450" r="3.5"/><circle cx="510" cy="460" r="3.5"/><circle cx="510" cy="470" r="3.5"/><circle cx="510" cy="480" r="3.5"/><circle cx="520" cy="320" r="3.5"/><circle cx="520" cy="330" r="3.5"/><circle cx="520" cy="340" r="3.5"/><circle cx="520" cy="350" r="3.5"/><circle cx="520" cy="360" r="3.5"/><circle cx="520" cy="370" r="3.5"/><circle cx="520" cy="380" r="3.5"/><circle cx="520" cy="390" r="3.5"/><circle cx="520" cy="400" r="3.5"/><circle cx="520" cy="430" r="3.5"/><circle cx="520" cy="440" r="3.5"/><circle cx="520" cy="450" r="3.5"/><circle cx="520" cy="460" r="3.5"/><circle cx="530" cy="350" r="3.5"/><circle cx="530" cy="360" r="3.5"/><circle cx="530" cy="370" r="3.5"/><circle cx="530" cy="380" r="3.5"/><circle cx="530" cy="390" r="3.5"/><circle cx="530" cy="400" r="3.5"/><circle cx="530" cy="430" r="3.5"/><circle cx="530" cy="440" r="3.5"/><circle cx="580" cy="210" r="3.5"/><circle cx="580" cy="220" r="3.5"/><circle cx="580" cy="230" r="3.5"/><circle cx="580" cy="240" r="3.5"/><circle cx="580" cy="250" r="3.5"/><circle cx="580" cy="260" r="3.5"/><circle cx="580" cy="270" r="3.5"/><circle cx="580" cy="280" r="3.5"/><circle cx="580" cy="290" r="3.5"/><circle cx="580" cy="300" r="3.5"/><circle cx="580" cy="310" r="3.5"/><circle cx="580" cy="320" r="3.5"/><circle cx="580" cy="330" r="3.5"/><circle cx="580" cy="340" r="3.5"/><circle cx="580" cy="350" r="3.5"/><circle cx="580" cy="360" r="3.5"/><circle cx="580" cy="370" r="3.5"/><circle cx="580" cy="380" r="3.5"/><circle cx="580" cy="390" r="3.5"/><circle cx="580" cy="400" r="3.5"/><circle cx="580" cy="410" r="3.5"/><circle cx="580" cy="420" r="3.5"/><circle cx="580" cy="430" r="3.5"/><circle cx="580" cy="440" r="3.5"/><circle cx="580" cy="450" r="3.5"/><circle cx="580" cy="460" r="3.5"/><circle cx="580" cy="470" r="3.5"/><circle cx="580" cy="480" r="3.5"/><circle cx="580" cy="490" r="3.5"/><circle cx="590" cy="210" r="3.5"/><circle cx="590" cy="220" r="3.5"/><circle cx="590" cy="230" r="3.5"/><circle cx="590" cy="240" r="3.5"/><circle cx="590" cy="250" r="3.5"/><circle cx="590" cy="260" r="3.5"/><circle cx="590" cy="270" r="3.5"/><circle cx="590" cy="280" r="3.5"/><circle cx="590" cy="290" r="3.5"/><circle cx="590" cy="300" r="3.5"/><circle cx="590" cy="310" r="3.5"/><circle cx="590" cy="320" r="3.5"/><circle cx="590" cy="330" r="3.5"/><circle cx="590" cy="340" r="3.5"/><circle cx="590" cy="350" r="3.5"/><circle cx="590" cy="360" r="3.5"/><circle cx="590" cy="370" r="3.5"/><circle cx="590" cy="380" r="3.5"/><circle cx="590" cy="390" r="3.5"/><circle cx="590" cy="400" r="3.5"/><circle cx="590" cy="410" r="3.5"/><circle cx="590" cy="420" r="3.5"/><circle cx="590" cy="430" r="3.5"/><circle cx="590" cy="440" r="3.5"/><circle cx="590" cy="450" r="3.5"/><circle cx="590" cy="460" r="3.5"/><circle cx="590" cy="470" r="3.5"/><circle cx="590" cy="480" r="3.5"/><circle cx="590" cy="490" r="3.5"/><circle cx="600" cy="210" r="3.5"/><circle cx="600" cy="220" r="3.5"/><circle cx="600" cy="230" r="3.5"/><circle cx="600" cy="240" r="3.5"/><circle cx="600" cy="250" r="3.5"/><circle cx="600" cy="260" r="3.5"/><circle cx="600" cy="270" r="3.5"/><circle cx="600" cy="280" r="3.5"/><circle cx="600" cy="290" r="3.5"/><circle cx="600" cy="300" r="3.5"/><circle cx="600" cy="310" r="3.5"/><circle cx="600" cy="320" r="3.5"/><circle cx="600" cy="330" r="3.5"/><circle cx="600" cy="340" r="3.5"/><circle cx="600" cy="350" r="3.5"/><circle cx="600" cy="360" r="3.5"/><circle cx="600" cy="370" r="3.5"/><circle cx="600" cy="380" r="3.5"/><circle cx="600" cy="390" r="3.5"/><circle cx="600" cy="400" r="3.5"/><circle cx="600" cy="410" r="3.5"/><circle cx="600" cy="420" r="3.5"/><circle cx="600" cy="430" r="3.5"/><circle cx="600" cy="440" r="3.5"/><circle cx="600" cy="450" r="3.5"/><circle cx="600" cy="460" r="3.5"/><circle cx="600" cy="470" r="3.5"/><circle cx="600" cy="480" r="3.5"/><circle cx="600" cy="490" r="3.5"/><circle cx="610" cy="210" r="3.5"/><circle cx="610" cy="220" r="3.5"/><circle cx="610" cy="230" r="3.5"/><circle cx="610" cy="240" r="3.5"/><circle cx="610" cy="250" r="3.5"/><circle cx="610" cy="260" r="3.5"/><circle cx="610" cy="270" r="3.5"/><circle cx="610" cy="280" r="3.5"/><circle cx="610" cy="290" r="3.5"/><circle cx="610" cy="300" r="3.5"/><circle cx="610" cy="310" r="3.5"/><circle cx="610" cy="320" r="3.5"/><circle cx="610" cy="330" r="3.5"/><circle cx="610" cy="340" r="3.5"/><circle cx="610" cy="350" r="3.5"/><circle cx="610" cy="360" r="3.5"/><circle cx="610" cy="370" r="3.5"/><circle cx="610" cy="380" r="3.5"/><circle cx="610" cy="390" r="3.5"/><circle cx="610" cy="400" r="3.5"/><circle cx="610" cy="410" r="3.5"/><circle cx="610" cy="420" r="3.5"/><circle cx="610" cy="430" r="3.5"/><circle cx="610" cy="440" r="3.5"/><circle cx="610" cy="450" r="3.5"/><circle cx="610" cy="460" r="3.5"/><circle cx="610" cy="470" r="3.5"/><circle cx="610" cy="480" r="3.5"/><circle cx="610" cy="490" r="3.5"/><circle cx="660" cy="210" r="3.5"/><circle cx="660" cy="220" r="3.5"/><circle cx="660" cy="230" r="3.5"/><circle cx="660" cy="240" r="3.5"/><circle cx="660" cy="250" r="3.5"/><circle cx="660" cy="260" r="3.5"/><circle cx="660" cy="270" r="3.5"/><circle cx="660" cy="280" r="3.5"/><circle cx="660" cy="290" r="3.5"/><circle cx="660" cy="300" r="3.5"/><circle cx="660" cy="310" r="3.5"/><circle cx="660" cy="320" r="3.5"/><circle cx="660" cy="330" r="3.5"/><circle cx="660" cy="340" r="3.5"/><circle cx="660" cy="350" r="3.5"/><circle cx="660" cy="360" r="3.5"/><circle cx="660" cy="370" r="3.5"/><circle cx="660" cy="380" r="3.5"/><circle cx="660" cy="390" r="3.5"/><circle cx="660" cy="400" r="3.5"/><circle cx="660" cy="410" r="3.5"/><circle cx="660" cy="420" r="3.5"/><circle cx="660" cy="430" r="3.5"/><circle cx="660" cy="440" r="3.5"/><circle cx="660" cy="450" r="3.5"/><circle cx="660" cy="460" r="3.5"/><circle cx="660" cy="470" r="3.5"/><circle cx="660" cy="480" r="3.5"/><circle cx="660" cy="490" r="3.5"/><circle cx="670" cy="210" r="3.5"/><circle cx="670" cy="220" r="3.5"/><circle cx="670" cy="230" r="3.5"/><circle cx="670" cy="240" r="3.5"/><circle cx="670" cy="250" r="3.5"/><circle cx="670" cy="260" r="3.5"/><circle cx="670" cy="270" r="3.5"/><circle cx="670" cy="280" r="3.5"/><circle cx="670" cy="290" r="3.5"/><circle cx="670" cy="300" r="3.5"/><circle cx="670" cy="310" r="3.5"/><circle cx="670" cy="320" r="3.5"/><circle cx="670" cy="330" r="3.5"/><circle cx="670" cy="340" r="3.5"/><circle cx="670" cy="350" r="3.5"/><circle cx="670" cy="360" r="3.5"/><circle cx="670" cy="370" r="3.5"/><circle cx="670" cy="380" r="3.5"/><circle cx="670" cy="390" r="3.5"/><circle cx="670" cy="400" r="3.5"/><circle cx="670" cy="410" r="3.5"/><circle cx="670" cy="420" r="3.5"/><circle cx="670" cy="430" r="3.5"/><circle cx="670" cy="440" r="3.5"/><circle cx="670" cy="450" r="3.5"/><circle cx="670" cy="460" r="3.5"/><circle cx="670" cy="470" r="3.5"/><circle cx="670" cy="480" r="3.5"/><circle cx="670" cy="490" r="3.5"/><circle cx="680" cy="210" r="3.5"/><circle cx="680" cy="220" r="3.5"/><circle cx="680" cy="230" r="3.5"/><circle cx="680" cy="240" r="3.5"/><circle cx="680" cy="250" r="3.5"/><circle cx="680" cy="260" r="3.5"/><circle cx="680" cy="270" r="3.5"/><circle cx="680" cy="280" r="3.5"/><circle cx="680" cy="290" r="3.5"/><circle cx="680" cy="300" r="3.5"/><circle cx="680" cy="310" r="3.5"/><circle cx="680" cy="320" r="3.5"/><circle cx="680" cy="330" r="3.5"/><circle cx="680" cy="340" r="3.5"/><circle cx="680" cy="350" r="3.5"/><circle cx="680" cy="360" r="3.5"/><circle cx="680" cy="370" r="3.5"/><circle cx="680" cy="380" r="3.5"/><circle cx="680" cy="390" r="3.5"/><circle cx="680" cy="400" r="3.5"/><circle cx="680" cy="410" r="3.5"/><circle cx="680" cy="420" r="3.5"/><circle cx="680" cy="430" r="3.5"/><circle cx="680" cy="440" r="3.5"/><circle cx="680" cy="450" r="3.5"/><circle cx="680" cy="460" r="3.5"/><circle cx="680" cy="470" r="3.5"/><circle cx="680" cy="480" r="3.5"/><circle cx="680" cy="490" r="3.5"/><circle cx="690" cy="210" r="3.5"/><circle cx="690" cy="220" r="3.5"/><circle cx="690" cy="230" r="3.5"/><circle cx="690" cy="240" r="3.5"/><circle cx="690" cy="250" r="3.5"/><circle cx="690" cy="260" r="3.5"/><circle cx="690" cy="270" r="3.5"/><circle cx="690" cy="280" r="3.5"/><circle cx="690" cy="290" r="3.5"/><circle cx="690" cy="300" r="3.5"/><circle cx="690" cy="310" r="3.5"/><circle cx="690" cy="320" r="3.5"/><circle cx="690" cy="330" r="3.5"/><circle cx="690" cy="340" r="3.5"/><circle cx="690" cy="350" r="3.5"/><circle cx="690" cy="360" r="3.5"/><circle cx="690" cy="370" r="3.5"/><circle cx="690" cy="380" r="3.5"/><circle cx="690" cy="390" r="3.5"/><circle cx="690" cy="400" r="3.5"/><circle cx="690" cy="410" r="3.5"/><circle cx="690" cy="420" r="3.5"/><circle cx="690" cy="430" r="3.5"/><circle cx="690" cy="440" r="3.5"/><circle cx="690" cy="450" r="3.5"/><circle cx="690" cy="460" r="3.5"/><circle cx="690" cy="470" r="3.5"/><circle cx="690" cy="480" r="3.5"/><circle cx="690" cy="490" r="3.5"/><circle cx="700" cy="210" r="3.5"/><circle cx="700" cy="220" r="3.5"/><circle cx="700" cy="230" r="3.5"/><circle cx="700" cy="240" r="3.5"/><circle cx="700" cy="250" r="3.5"/><circle cx="700" cy="260" r="3.5"/><circle cx="700" cy="270" r="3.5"/><circle cx="700" cy="280" r="3.5"/><circle cx="700" cy="290" r="3.5"/><circle cx="700" cy="300" r="3.5"/><circle cx="700" cy="310" r="3.5"/><circle cx="700" cy="320" r="3.5"/><circle cx="700" cy="330" r="3.5"/><circle cx="700" cy="340" r="3.5"/><circle cx="700" cy="350" r="3.5"/><circle cx="700" cy="360" r="3.5"/><circle cx="700" cy="370" r="3.5"/><circle cx="700" cy="380" r="3.5"/><circle cx="700" cy="390" r="3.5"/><circle cx="700" cy="400" r="3.5"/><circle cx="700" cy="410" r="3.5"/><circle cx="700" cy="420" r="3.5"/><circle cx="700" cy="430" r="3.5"/><circle cx="700" cy="440" r="3.5"/><circle cx="700" cy="450" r="3.5"/><circle cx="700" cy="460" r="3.5"/><circle cx="700" cy="470" r="3.5"/><circle cx="700" cy="480" r="3.5"/><circle cx="700" cy="490" r="3.5"/><circle cx="740" cy="350" r="3.5"/><circle cx="740" cy="360" r="3.5"/><circle cx="740" cy="370" r="3.5"/><circle cx="740" cy="380" r="3.5"/><circle cx="740" cy="390" r="3.5"/><circle cx="740" cy="400" r="3.5"/><circle cx="740" cy="410" r="3.5"/><circle cx="740" cy="420" r="3.5"/><circle cx="740" cy="430" r="3.5"/><circle cx="740" cy="440" r="3.5"/><circle cx="750" cy="330" r="3.5"/><circle cx="750" cy="340" r="3.5"/><circle cx="750" cy="350" r="3.5"/><circle cx="750" cy="360" r="3.5"/><circle cx="750" cy="370" r="3.5"/><circle cx="750" cy="380" r="3.5"/><circle cx="750" cy="390" r="3.5"/><circle cx="750" cy="400" r="3.5"/><circle cx="750" cy="410" r="3.5"/><circle cx="750" cy="420" r="3.5"/><circle cx="750" cy="430" r="3.5"/><circle cx="750" cy="440" r="3.5"/><circle cx="750" cy="450" r="3.5"/><circle cx="750" cy="460" r="3.5"/><circle cx="760" cy="310" r="3.5"/><circle cx="760" cy="320" r="3.5"/><circle cx="760" cy="330" r="3.5"/><circle cx="760" cy="340" r="3.5"/><circle cx="760" cy="350" r="3.5"/><circle cx="760" cy="360" r="3.5"/><circle cx="760" cy="370" r="3.5"/><circle cx="760" cy="380" r="3.5"/><circle cx="760" cy="390" r="3.5"/><circle cx="760" cy="400" r="3.5"/><circle cx="760" cy="410" r="3.5"/><circle cx="760" cy="420" r="3.5"/><circle cx="760" cy="430" r="3.5"/><circle cx="760" cy="440" r="3.5"/><circle cx="760" cy="450" r="3.5"/><circle cx="760" cy="460" r="3.5"/><circle cx="760" cy="470" r="3.5"/><circle cx="760" cy="480" r="3.5"/><circle cx="770" cy="300" r="3.5"/><circle cx="770" cy="310" r="3.5"/><circle cx="770" cy="320" r="3.5"/><circle cx="770" cy="330" r="3.5"/><circle cx="770" cy="340" r="3.5"/><circle cx="770" cy="350" r="3.5"/><circle cx="770" cy="360" r="3.5"/><circle cx="770" cy="370" r="3.5"/><circle cx="770" cy="380" r="3.5"/><circle cx="770" cy="390" r="3.5"/><circle cx="770" cy="400" r="3.5"/><circle cx="770" cy="410" r="3.5"/><circle cx="770" cy="420" r="3.5"/><circle cx="770" cy="430" r="3.5"/><circle cx="770" cy="440" r="3.5"/><circle cx="770" cy="450" r="3.5"/><circle cx="770" cy="460" r="3.5"/><circle cx="770" cy="470" r="3.5"/><circle cx="770" cy="480" r="3.5"/><circle cx="780" cy="300" r="3.5"/><circle cx="780" cy="310" r="3.5"/><circle cx="780" cy="320" r="3.5"/><circle cx="780" cy="330" r="3.5"/><circle cx="780" cy="340" r="3.5"/><circle cx="780" cy="350" r="3.5"/><circle cx="780" cy="360" r="3.5"/><circle cx="780" cy="370" r="3.5"/><circle cx="780" cy="420" r="3.5"/><circle cx="780" cy="430" r="3.5"/><circle cx="780" cy="440" r="3.5"/><circle cx="780" cy="450" r="3.5"/><circle cx="780" cy="460" r="3.5"/><circle cx="780" cy="470" r="3.5"/><circle cx="780" cy="480" r="3.5"/><circle cx="780" cy="490" r="3.5"/><circle cx="790" cy="290" r="3.5"/><circle cx="790" cy="300" r="3.5"/><circle cx="790" cy="310" r="3.5"/><circle cx="790" cy="320" r="3.5"/><circle cx="790" cy="330" r="3.5"/><circle cx="790" cy="340" r="3.5"/><circle cx="790" cy="450" r="3.5"/><circle cx="790" cy="460" r="3.5"/><circle cx="790" cy="470" r="3.5"/><circle cx="790" cy="480" r="3.5"/><circle cx="790" cy="490" r="3.5"/><circle cx="790" cy="500" r="3.5"/><circle cx="800" cy="290" r="3.5"/><circle cx="800" cy="300" r="3.5"/><circle cx="800" cy="310" r="3.5"/><circle cx="800" cy="320" r="3.5"/><circle cx="800" cy="330" r="3.5"/><circle cx="800" cy="460" r="3.5"/><circle cx="800" cy="470" r="3.5"/><circle cx="800" cy="480" r="3.5"/><circle cx="800" cy="490" r="3.5"/><circle cx="800" cy="500" r="3.5"/><circle cx="810" cy="290" r="3.5"/><circle cx="810" cy="300" r="3.5"/><circle cx="810" cy="310" r="3.5"/><circle cx="810" cy="320" r="3.5"/><circle cx="810" cy="470" r="3.5"/><circle cx="810" cy="480" r="3.5"/><circle cx="810" cy="490" r="3.5"/><circle cx="810" cy="500" r="3.5"/><circle cx="820" cy="280" r="3.5"/><circle cx="820" cy="290" r="3.5"/><circle cx="820" cy="300" r="3.5"/><circle cx="820" cy="310" r="3.5"/><circle cx="820" cy="320" r="3.5"/><circle cx="820" cy="470" r="3.5"/><circle cx="820" cy="480" r="3.5"/><circle cx="820" cy="490" r="3.5"/><circle cx="820" cy="500" r="3.5"/><circle cx="830" cy="280" r="3.5"/><circle cx="830" cy="290" r="3.5"/><circle cx="830" cy="300" r="3.5"/><circle cx="830" cy="310" r="3.5"/><circle cx="830" cy="470" r="3.5"/><circle cx="830" cy="480" r="3.5"/><circle cx="830" cy="490" r="3.5"/><circle cx="830" cy="500" r="3.5"/><circle cx="840" cy="280" r="3.5"/><circle cx="840" cy="290" r="3.5"/><circle cx="840" cy="300" r="3.5"/><circle cx="840" cy="310" r="3.5"/><circle cx="840" cy="320" r="3.5"/><circle cx="840" cy="470" r="3.5"/><circle cx="840" cy="480" r="3.5"/><circle cx="840" cy="490" r="3.5"/><circle cx="840" cy="500" r="3.5"/><circle cx="850" cy="280" r="3.5"/><circle cx="850" cy="290" r="3.5"/><circle cx="850" cy="300" r="3.5"/><circle cx="850" cy="310" r="3.5"/><circle cx="850" cy="320" r="3.5"/><circle cx="850" cy="470" r="3.5"/><circle cx="850" cy="480" r="3.5"/><circle cx="850" cy="490" r="3.5"/><circle cx="850" cy="500" r="3.5"/><circle cx="860" cy="290" r="3.5"/><circle cx="860" cy="300" r="3.5"/><circle cx="860" cy="310" r="3.5"/><circle cx="860" cy="320" r="3.5"/><circle cx="860" cy="460" r="3.5"/><circle cx="860" cy="470" r="3.5"/><circle cx="860" cy="480" r="3.5"/><circle cx="860" cy="490" r="3.5"/><circle cx="860" cy="500" r="3.5"/><circle cx="870" cy="290" r="3.5"/><circle cx="870" cy="300" r="3.5"/><circle cx="870" cy="310" r="3.5"/><circle cx="870" cy="320" r="3.5"/><circle cx="870" cy="330" r="3.5"/><circle cx="870" cy="450" r="3.5"/><circle cx="870" cy="460" r="3.5"/><circle cx="870" cy="470" r="3.5"/><circle cx="870" cy="480" r="3.5"/><circle cx="870" cy="490" r="3.5"/><circle cx="870" cy="500" r="3.5"/><circle cx="880" cy="290" r="3.5"/><circle cx="880" cy="300" r="3.5"/><circle cx="880" cy="310" r="3.5"/><circle cx="880" cy="320" r="3.5"/><circle cx="880" cy="330" r="3.5"/><circle cx="880" cy="340" r="3.5"/><circle cx="880" cy="430" r="3.5"/><circle cx="880" cy="440" r="3.5"/><circle cx="880" cy="450" r="3.5"/><circle cx="880" cy="460" r="3.5"/><circle cx="880" cy="470" r="3.5"/><circle cx="880" cy="480" r="3.5"/><circle cx="880" cy="490" r="3.5"/><circle cx="890" cy="300" r="3.5"/><circle cx="890" cy="310" r="3.5"/><circle cx="890" cy="320" r="3.5"/><circle cx="890" cy="330" r="3.5"/><circle cx="890" cy="340" r="3.5"/><circle cx="890" cy="350" r="3.5"/><circle cx="890" cy="360" r="3.5"/><circle cx="890" cy="370" r="3.5"/><circle cx="890" cy="380" r="3.5"/><circle cx="890" cy="390" r="3.5"/><circle cx="890" cy="400" r="3.5"/><circle cx="890" cy="410" r="3.5"/><circle cx="890" cy="420" r="3.5"/><circle cx="890" cy="430" r="3.5"/><circle cx="890" cy="440" r="3.5"/><circle cx="890" cy="450" r="3.5"/><circle cx="890" cy="460" r="3.5"/><circle cx="890" cy="470" r="3.5"/><circle cx="890" cy="480" r="3.5"/><circle cx="890" cy="490" r="3.5"/><circle cx="900" cy="310" r="3.5"/><circle cx="900" cy="320" r="3.5"/><circle cx="900" cy="330" r="3.5"/><circle cx="900" cy="340" r="3.5"/><circle cx="900" cy="350" r="3.5"/><circle cx="900" cy="360" r="3.5"/><circle cx="900" cy="370" r="3.5"/><circle cx="900" cy="380" r="3.5"/><circle cx="900" cy="390" r="3.5"/><circle cx="900" cy="400" r="3.5"/><circle cx="900" cy="410" r="3.5"/><circle cx="900" cy="420" r="3.5"/><circle cx="900" cy="430" r="3.5"/><circle cx="900" cy="440" r="3.5"/><circle cx="900" cy="450" r="3.5"/><circle cx="900" cy="460" r="3.5"/><circle cx="900" cy="470" r="3.5"/><circle cx="900" cy="480" r="3.5"/><circle cx="910" cy="320" r="3.5"/><circle cx="910" cy="330" r="3.5"/><circle cx="910" cy="340" r="3.5"/><circle cx="910" cy="350" r="3.5"/><circle cx="910" cy="360" r="3.5"/><circle cx="910" cy="370" r="3.5"/><circle cx="910" cy="380" r="3.5"/><circle cx="910" cy="390" r="3.5"/><circle cx="910" cy="400" r="3.5"/><circle cx="910" cy="410" r="3.5"/><circle cx="910" cy="420" r="3.5"/><circle cx="910" cy="430" r="3.5"/><circle cx="910" cy="440" r="3.5"/><circle cx="910" cy="450" r="3.5"/><circle cx="910" cy="460" r="3.5"/><circle cx="910" cy="470" r="3.5"/><circle cx="920" cy="330" r="3.5"/><circle cx="920" cy="340" r="3.5"/><circle cx="920" cy="350" r="3.5"/><circle cx="920" cy="360" r="3.5"/><circle cx="920" cy="370" r="3.5"/><circle cx="920" cy="380" r="3.5"/><circle cx="920" cy="390" r="3.5"/><circle cx="920" cy="400" r="3.5"/><circle cx="920" cy="410" r="3.5"/><circle cx="920" cy="420" r="3.5"/><circle cx="920" cy="430" r="3.5"/><circle cx="920" cy="440" r="3.5"/><circle cx="920" cy="450" r="3.5"/><circle cx="930" cy="360" r="3.5"/><circle cx="930" cy="370" r="3.5"/><circle cx="930" cy="380" r="3.5"/><circle cx="930" cy="390" r="3.5"/><circle cx="930" cy="400" r="3.5"/><circle cx="930" cy="410" r="3.5"/><path d="M980,20V980H20V20H980m20-20H0V1000H1000V0Z"/></svg>